<svg xmlns="http://www.w3.org/2000/svg" xml:space="preserve" width="300.767" height="360.079" viewBox="0 0 79.578 95.271"><g stroke-linecap="round" stroke-linejoin="round" paint-order="stroke fill markers"><path fill="#e58329" d="m.273 23.14 39.511 22.812v45.292L.273 68.434z"/><path fill="#fcb043" d="M79.291 23.14v45.305L39.782 91.254V45.951z"/><path fill="#ffce94" d="m39.791 0 7.687 4.438 32.097 18.531-39.794 22.976-39.784-22.97z"/></g><path fill="#c1bc06" fill-opacity=".48" d="m55.651 9.15-1.613.931 1.296.748-1.296-.747-7.677 4.432 7.675 4.43 7.676-4.432 1.613-.931zm-1.615 9.795-6.192-3.575-1.483-.856-7.585 4.38-.015-.009-7.676 4.432 1.296.748-1.296-.748-7.676 4.432 7.674 4.431 7.677-4.432 7.584-4.379.015.008zM31.083 32.18l-6.192-3.575-1.483-.856-7.566 4.368v8.798l7.675 4.43v-8.797z" paint-order="stroke fill markers"/><g stroke-linecap="round" stroke-linejoin="round" paint-order="stroke fill markers"><path fill="#fff" fill-opacity=".353" d="m1.477 56.87 9.204 5.314v10.55l-9.204-5.313z"/><path fill="#212121" fill-opacity=".91" d="M2.138 58.44v1.341l1.17.675.991.572v.001l.179.103.991.572.178.103.992.573 1.17.675 1.17.675v-1.34l-1.17-.676-.992-.572-.178-.103-.992-.573-.178-.103-.991-.572-.179-.103-.991-.573zM2.002 60.6v1.341l2.34 1.35 1.17.676v-1.34l-1.17-.676-1.17-.676z"/></g><path d="M19.13 52.107a5.914 5.914 0 0 1-.386-.318c-.029-.027-.033-.066-.034-.329 0-.163.006-.294.013-.289.008.005.094.076.191.159.267.226.57.416.764.477.182.058.263.048.325-.038.042-.06.112-.266.098-.29a1 1 0 0 0-.174-.063 2.449 2.449 0 0 1-.737-.413 2.115 2.115 0 0 1-.7-1.336 3.75 3.75 0 0 1-.003-.883c.081-.456.347-.64.76-.525.202.056.752.373 1.107.638.138.103.264.2.28.216.027.025.032.17.047 1.343.023 1.784.013 1.898-.175 2.052-.158.129-.356.127-.677-.007a5.722 5.722 0 0 1-.698-.394zm.836-1.318.135.023-.003-.723c-.002-.666-.005-.726-.035-.76a3.113 3.113 0 0 0-.302-.203c-.247-.153-.28-.168-.381-.178-.142-.014-.253.064-.3.212-.025.082-.033.176-.032.395 0 .248.007.307.044.431.053.179.14.347.237.464.105.125.444.305.637.339zm-7.67-3.656c-.1-.074-.371-.295-.443-.36l-.07-.065v-.323c0-.304.001-.321.033-.29.39.384.843.7 1.06.74.088.017.153-.057.153-.174a.341.341 0 0 0-.058-.199c-.051-.09-.073-.111-.182-.177a4.978 4.978 0 0 0-.207-.118 3.551 3.551 0 0 1-.28-.182c-.435-.309-.617-.661-.622-1.209-.003-.327.037-.461.163-.55.169-.12.354-.091.748.116.293.155.53.321.772.542l.155.142.006.3c.003.165 0 .304-.01.31-.007.006-.068-.042-.135-.106-.34-.33-.811-.643-.99-.658-.148-.013-.2.098-.136.291.04.121.103.183.314.305.294.171.552.357.674.486.137.145.255.35.322.562.048.153.052.185.052.464 0 .35-.026.438-.161.534-.168.12-.424.062-.849-.19a6.36 6.36 0 0 1-.31-.191zm2.049 1.164a8.335 8.335 0 0 1-.275-.232l-.127-.113-.001-.305c0-.167.004-.307.01-.311.005-.004.096.073.202.17.362.333.843.626.958.583.094-.036.098-.238.007-.398-.046-.081-.062-.094-.274-.217-.487-.281-.693-.46-.832-.717-.126-.235-.173-.43-.175-.735a1.767 1.767 0 0 1 .02-.326.469.469 0 0 1 .21-.274c.078-.034.268-.012.456.054.254.089.834.48 1.11.75.029.028.033.068.033.356.001.298-.001.32-.031.288a6.809 6.809 0 0 0-.203-.19c-.422-.384-.856-.621-.997-.545-.078.043-.054.282.04.397.032.039.165.132.384.267.36.224.496.334.644.522.305.39.384 1.125.15 1.406-.075.09-.177.113-.358.078-.133-.025-.195-.052-.478-.21a3.594 3.594 0 0 1-.473-.298zM17.9 50.36a1.843 1.843 0 0 1-.209-.215l-.118-.142-.181-.03c-.152-.025-.222-.05-.415-.152-.347-.183-.602-.414-.769-.697-.188-.32-.249-.861-.13-1.142.074-.172.273-.224.541-.141.149.046.528.254.767.42l.144.101v-.104a.732.732 0 0 0-.125-.393c-.152-.217-.584-.49-.977-.615l-.217-.07-.013-.2a3.337 3.337 0 0 1-.007-.303l.006-.104.126.032c.21.054.486.183.766.358.423.265.71.555.873.88.152.305.152.303.156 1.557l.004 1.101-.065-.034a1.244 1.244 0 0 1-.157-.107zm-.697-1.045c.077.02.184.032.236.028l.095-.007-.006-.2-.006-.199-.195-.143c-.202-.148-.424-.268-.543-.294-.083-.019-.158.046-.174.149-.017.11.05.317.129.394a.934.934 0 0 0 .464.272zM5.621 41.278v-1.991l.628.362.309 1.066c.569 1.968.715 2.462.731 2.473.016.01.131-.252.707-1.618l.31-.734.294.17.294.17.002 1.993.002 1.995-.54-.312-.002-1.344c0-.766-.008-1.332-.017-1.317-.009.015-.194.512-.411 1.105l-.395 1.08-.516-.298-.02-.077-.413-1.582-.395-1.504-.012.542a91.76 91.76 0 0 0-.014 1.334l-.002.793-.54-.312zm4.585 4.603c-.451-.358-.72-.821-.838-1.449-.046-.24-.046-.81 0-.998.1-.412.316-.568.675-.488.164.036.579.263.737.402.27.237.446.502.552.831.093.289.118.485.11.878a2.6 2.6 0 0 1-.02.364c-.012.016-.184-.076-.758-.408-.837-.483-.779-.465-.698-.215.09.282.215.438.538.674.167.122.542.315.751.386a.326.326 0 0 1 .103.05c.008.01.015.152.015.314v.295l-.07-.026a4.96 4.96 0 0 1-1.097-.61zm.663-1.369c0-.263-.12-.545-.295-.693-.209-.178-.39-.238-.501-.166-.055.035-.114.158-.145.301l-.012.054.476.275c.46.266.477.274.477.229zm11.085 8.164a2.125 2.125 0 0 1-.408-.39c-.375-.446-.557-1.049-.531-1.76.016-.438.11-.684.305-.798.185-.107.396-.075.754.114.367.194.596.405.77.708.109.192.16.329.223.591.047.2.05.24.051.612.001.218-.005.406-.012.417-.009.014-.224-.103-.753-.408a15.402 15.402 0 0 0-.75-.42c-.022.015.064.274.132.403.088.167.213.298.45.47.19.137.463.278.747.384.055.02.107.046.115.057.008.01.014.153.015.316 0 .164-.005.295-.012.29-.008-.003-.115-.05-.238-.101-.238-.1-.67-.345-.858-.485zm.59-1.479a1.461 1.461 0 0 0-.1-.392c-.097-.194-.344-.395-.53-.433-.165-.034-.24.043-.318.326l-.012.047.973.561z"/><path fill="#626262" d="m23.554 51.614-.009-1.998.832.488c.819.481.834.49.951.613.158.165.297.393.36.588.072.223.104.507.08.704-.064.546-.34.709-.953.562-.297-.071-.279-.054-.322-.313a4.962 4.962 0 0 1-.037-.24c0-.011.089 0 .198.027.435.105.646-.009.674-.366a.955.955 0 0 0-.126-.535c-.117-.188-.237-.278-.764-.576l-.472-.266.003 1.773.004 1.775-.41-.236zm3.034 3.71a1.438 1.438 0 0 1-.296-.32 1.695 1.695 0 0 1-.258-.878c-.003-.679.394-.75 1.187-.216.38.257.341.253.328.035-.016-.26-.056-.374-.183-.528-.206-.248-.566-.464-.983-.588a.629.629 0 0 1-.161-.063 1.575 1.575 0 0 1-.01-.226l-.002-.208.144.045c.256.078.381.133.609.264.237.137.412.275.596.467.15.159.304.44.366.673.045.168.046.173.058 1.28l.013 1.112-.119-.069c-.113-.065-.121-.074-.19-.203l-.072-.136-.095-.006c-.257-.018-.674-.212-.932-.434zm.705-.06c.071.013.16.02.2.018l.069-.006-.002-.347c-.002-.31-.006-.352-.035-.383-.061-.066-.753-.455-.837-.47-.156-.03-.266.14-.235.363.03.223.137.426.293.558.125.106.4.24.547.267zm1.984 1.602a2.355 2.355 0 0 1-.789-1.37 2.534 2.534 0 0 1-.047-.582c-.003-.42.03-.58.149-.75.13-.185.28-.236.55-.187.157.03.186.042.538.245.334.192.568.356.603.42.018.033.028.41.011.421-.009.006-.083-.044-.165-.11-.21-.171-.584-.387-.73-.422-.238-.058-.38 0-.469.193-.048.105-.058.157-.064.36-.02.596.165 1.065.561 1.428.149.136.503.341.715.414.082.028.155.06.163.07.022.029.019.42-.004.424-.01.003-.1-.027-.2-.066a3.56 3.56 0 0 1-.822-.488zm1.42-1.127-.012-1.999.204.118.205.118.004.623c.002.39.01.626.022.633.01.005.08.019.154.03.487.07 1.051.447 1.276.85.034.062.085.18.113.26.045.134.05.174.052.4.001.229-.003.262-.05.36-.065.136-.172.187-.388.188-.088 0-.16.009-.16.02 0 .015.168.397.635 1.441l.082.185-.268-.155-.268-.155-.335-.757a28.08 28.08 0 0 1-.36-.837 1.183 1.183 0 0 1-.038-.193l-.012-.114.207.067c.114.037.247.064.296.06.167-.012.26-.124.26-.31-.004-.432-.546-.855-1.092-.852h-.119l.008 1.128.007 1.128-.41-.236z"/><g transform="translate(-64.319 -159.54)"><circle cx="123" cy="226" r="15" fill="#99cad7" fill-opacity=".661" stroke="#def2fc" stroke-width="2.7"/><g stroke-linecap="round" stroke-linejoin="round" aria-label="Infinity" style="inline-size:30.7073;white-space:pre-wrap"><path d="M124.7 216.36v-.207h.41v-1.126l-.412.305v-.258l.353-.258h.288v1.337h.333v.208zM123.43 216.36v-.207h.41v-1.126l-.412.305v-.258l.353-.258h.288v1.337h.333v.208zM122.61 216.38q-.22 0-.35-.124-.128-.125-.128-.334v-.671q0-.208.129-.333.129-.125.349-.125.22 0 .35.125.128.125.128.333v.67q0 .14-.059.244-.06.102-.167.159-.106.057-.252.057zm0-.196q.119 0 .188-.072.072-.072.072-.19v-.671q0-.117-.072-.189-.07-.072-.188-.072-.119 0-.19.072-.07.072-.07.189v.67q0 .119.07.191.071.072.19.072zm0-.474q-.06 0-.097-.034-.036-.034-.036-.095 0-.06.036-.091.038-.034.097-.034t.095.034q.038.032.038.09 0 .062-.038.096-.036.034-.095.034zM120.89 216.36v-.207h.41v-1.126l-.412.305v-.258l.353-.258h.288v1.337h.333v.208zM120.07 216.38q-.22 0-.35-.124-.128-.125-.128-.334v-.671q0-.208.129-.333t.349-.125.35.125.128.333v.67q0 .14-.059.244-.06.102-.167.159-.106.057-.252.057zm0-.196q.119 0 .188-.072.072-.072.072-.19v-.671q0-.117-.072-.189-.07-.072-.188-.072-.119 0-.19.072-.07.072-.07.189v.67q0 .119.07.191.071.072.19.072zm0-.474q-.06 0-.097-.034-.036-.034-.036-.095 0-.06.036-.091.038-.034.097-.034t.095.034q.038.032.038.09 0 .062-.038.096-.036.034-.095.034zM118.35 216.36v-.207h.41v-1.126l-.412.305v-.258l.353-.258h.288v1.337h.333v.208zM117.08 216.36v-.207h.41v-1.126l-.412.305v-.258l.353-.258h.288v1.337h.333v.208zM116.26 216.38q-.22 0-.35-.124-.128-.125-.128-.334v-.671q0-.208.129-.333.129-.125.349-.125.22 0 .35.125.128.125.128.333v.67q0 .14-.059.244-.06.102-.167.159-.106.057-.252.057zm0-.196q.119 0 .188-.072.072-.072.072-.19v-.671q0-.117-.072-.189-.07-.072-.188-.072-.119 0-.19.072-.07.072-.07.189v.67q0 .119.07.191.072.072.19.072zm0-.474q-.06 0-.097-.034-.036-.034-.036-.095 0-.06.036-.091.038-.034.097-.034t.095.034q.038.032.038.09 0 .062-.038.096-.036.034-.095.034zM114.54 216.36v-.207h.41v-1.126l-.412.305v-.258l.353-.258h.288v1.337h.333v.208zM113.27 216.36v-.207h.41v-1.126l-.412.305v-.258l.353-.258h.288v1.337h.333v.208zM112.45 216.38q-.22 0-.35-.124-.128-.125-.128-.334v-.671q0-.208.129-.333.129-.125.349-.125.22 0 .35.125.128.125.128.333v.67q0 .14-.059.244-.06.102-.167.159-.106.057-.252.057zm0-.196q.119 0 .188-.072.072-.072.072-.19v-.671q0-.117-.072-.189-.07-.072-.188-.072-.119 0-.19.072-.07.072-.07.189v.67q0 .119.07.191.071.072.19.072zm0-.474q-.06 0-.097-.034-.036-.034-.036-.095 0-.06.036-.091.038-.034.097-.034t.095.034q.038.032.038.09 0 .062-.038.096-.036.034-.095.034zM130.13 213.73q-.22 0-.35-.124-.128-.125-.128-.334v-.671q0-.208.129-.333.129-.125.349-.125.22 0 .35.125.128.125.128.333v.67q0 .14-.059.244-.06.102-.167.159-.106.057-.252.057zm0-.196q.119 0 .188-.072.072-.072.072-.19v-.672q0-.116-.072-.188-.07-.072-.188-.072-.119 0-.19.072-.07.072-.07.188v.671q0 .119.07.191.072.072.19.072zm0-.474q-.06 0-.097-.034-.036-.034-.036-.095 0-.06.036-.091.038-.034.097-.034t.095.034q.038.032.038.09 0 .062-.038.096-.036.034-.095.034zM128.41 213.71v-.207h.41v-1.126l-.412.305v-.258l.353-.258h.288v1.337h.333v.208zM127.14 213.71v-.207h.41v-1.126l-.412.305v-.258l.353-.258h.288v1.337h.333v.208zM126.32 213.73q-.22 0-.35-.124-.128-.125-.128-.334v-.671q0-.208.129-.333.129-.125.349-.125.22 0 .35.125.128.125.128.333v.67q0 .14-.059.244-.06.102-.167.159-.106.057-.252.057zm0-.196q.119 0 .188-.072.072-.072.072-.19v-.672q0-.116-.072-.188-.07-.072-.188-.072-.119 0-.19.072-.07.072-.07.188v.671q0 .119.07.191.071.072.19.072zm0-.474q-.06 0-.097-.034-.036-.034-.036-.095 0-.06.036-.091.038-.034.097-.034t.095.034q.038.032.038.09 0 .062-.038.096-.036.034-.095.034zM125.05 213.73q-.22 0-.35-.124-.128-.125-.128-.334v-.671q0-.208.129-.333.129-.125.349-.125.22 0 .35.125.128.125.128.333v.67q0 .14-.059.244-.06.102-.167.159-.106.057-.252.057zm0-.196q.119 0 .188-.072.072-.072.072-.19v-.672q0-.116-.072-.188-.07-.072-.188-.072-.119 0-.19.072-.07.072-.07.188v.671q0 .119.07.191.071.072.19.072zm0-.474q-.06 0-.097-.034-.036-.034-.036-.095 0-.06.036-.091.038-.034.097-.034t.095.034q.038.032.038.09 0 .062-.038.096-.036.034-.095.034zM123.78 213.73q-.22 0-.35-.124t-.128-.334v-.671q0-.208.129-.333.129-.125.349-.125.22 0 .35.125.128.125.128.333v.67q0 .14-.059.244-.06.102-.167.159-.106.057-.252.057zm0-.196q.119 0 .188-.072.072-.072.072-.19v-.672q0-.116-.072-.188-.07-.072-.188-.072-.119 0-.19.072-.07.072-.07.188v.671q0 .119.07.191.071.072.19.072zm0-.474q-.06 0-.097-.034-.036-.034-.036-.095 0-.06.036-.091.038-.034.097-.034t.095.034q.038.032.038.09 0 .062-.038.096-.036.034-.095.034zM122.06 213.71v-.207h.41v-1.126l-.412.305v-.258l.353-.258h.288v1.337h.333v.208zM120.79 213.71v-.207h.41v-1.126l-.412.305v-.258l.353-.258h.288v1.337h.333v.208zM119.97 213.73q-.22 0-.35-.124-.128-.125-.128-.334v-.671q0-.208.129-.333.129-.125.349-.125.22 0 .35.125.128.125.128.333v.67q0 .14-.059.244-.06.102-.167.159-.106.057-.252.057zm0-.196q.119 0 .188-.072.072-.072.072-.19v-.672q0-.116-.072-.188-.07-.072-.188-.072-.119 0-.19.072-.07.072-.07.188v.671q0 .119.07.191.071.072.19.072zm0-.474q-.06 0-.097-.034-.036-.034-.036-.095 0-.06.036-.091.038-.034.097-.034t.095.034q.038.032.038.09 0 .062-.038.096-.036.034-.095.034zM118.25 213.71v-.207h.41v-1.126l-.412.305v-.258l.353-.258h.288v1.337h.333v.208zM117.43 213.73q-.22 0-.35-.124-.128-.125-.128-.334v-.671q0-.208.129-.333.129-.125.349-.125.22 0 .35.125.128.125.128.333v.67q0 .14-.059.244-.06.102-.167.159-.106.057-.252.057zm0-.196q.119 0 .188-.072.072-.072.072-.19v-.672q0-.116-.072-.188-.07-.072-.188-.072-.119 0-.19.072-.07.072-.07.188v.671q0 .119.07.191.072.072.19.072zm0-.474q-.06 0-.097-.034-.036-.034-.036-.095 0-.06.036-.091.038-.034.097-.034t.095.034q.038.032.038.09 0 .062-.038.096-.036.034-.095.034zM115.71 213.71v-.207h.41v-1.126l-.412.305v-.258l.353-.258h.288v1.337h.333v.208zM114.89 213.73q-.22 0-.35-.124t-.128-.334v-.671q0-.208.129-.333.129-.125.349-.125.22 0 .35.125.128.125.128.333v.67q0 .14-.059.244-.06.102-.167.159-.106.057-.252.057zm0-.196q.119 0 .188-.072.072-.072.072-.19v-.672q0-.116-.072-.188-.07-.072-.188-.072-.119 0-.19.072-.07.072-.07.188v.671q0 .119.07.191.071.072.19.072zm0-.474q-.06 0-.097-.034-.036-.034-.036-.095 0-.06.036-.091.038-.034.097-.034t.095.034q.038.032.038.09 0 .062-.038.096-.036.034-.095.034zM131.61 219.02q-.22 0-.35-.124-.128-.125-.128-.334v-.671q0-.208.129-.333.129-.125.349-.125.22 0 .35.125.128.125.128.333v.67q0 .14-.059.244-.06.102-.167.159-.106.057-.252.057zm0-.196q.119 0 .188-.072.072-.072.072-.19v-.671q0-.117-.072-.189-.07-.072-.188-.072-.119 0-.19.072-.07.072-.07.189v.67q0 .119.07.191.072.072.19.072zm0-.474q-.06 0-.097-.034-.036-.034-.036-.095 0-.06.036-.091.038-.034.097-.034t.095.034q.038.031.038.09 0 .062-.038.096-.036.034-.095.034zM130.34 219.02q-.22 0-.35-.124-.128-.125-.128-.334v-.671q0-.208.129-.333.129-.125.349-.125.22 0 .35.125.128.125.128.333v.67q0 .14-.059.244-.06.102-.167.159-.106.057-.252.057zm0-.196q.119 0 .188-.072.072-.072.072-.19v-.671q0-.117-.072-.189-.07-.072-.188-.072-.119 0-.19.072-.07.072-.07.189v.67q0 .119.07.191.072.072.19.072zm0-.474q-.06 0-.097-.034-.036-.034-.036-.095 0-.06.036-.091.038-.034.097-.034t.095.034q.038.031.038.09 0 .062-.038.096-.036.034-.095.034zM128.62 219v-.207h.41v-1.126l-.412.305v-.258l.353-.258h.288v1.337h.333v.208zM127.8 219.02q-.22 0-.35-.124-.128-.125-.128-.334v-.671q0-.208.129-.333.129-.125.349-.125.22 0 .35.125.128.125.128.333v.67q0 .14-.059.244-.06.102-.167.159-.106.057-.252.057zm0-.196q.119 0 .188-.072.072-.072.072-.19v-.671q0-.117-.072-.189-.07-.072-.188-.072-.119 0-.19.072-.07.072-.07.189v.67q0 .119.07.191.071.072.19.072zm0-.474q-.06 0-.097-.034-.036-.034-.036-.095 0-.06.036-.091.038-.034.097-.034t.095.034q.038.031.038.09 0 .062-.038.096-.036.034-.095.034zM126.53 219.02q-.22 0-.35-.124-.128-.125-.128-.334v-.671q0-.208.129-.333.129-.125.349-.125.22 0 .35.125.128.125.128.333v.67q0 .14-.059.244-.06.102-.167.159-.106.057-.252.057zm0-.196q.119 0 .188-.072.072-.072.072-.19v-.671q0-.117-.072-.189-.07-.072-.188-.072-.119 0-.19.072-.07.072-.07.189v.67q0 .119.07.191.071.072.19.072zm0-.474q-.06 0-.097-.034-.036-.034-.036-.095 0-.06.036-.091.038-.034.097-.034t.095.034q.038.031.038.09 0 .062-.038.096-.036.034-.095.034zM125.26 219.02q-.22 0-.35-.124-.128-.125-.128-.334v-.671q0-.208.129-.333.129-.125.349-.125t.35.125q.128.125.128.333v.67q0 .14-.059.244-.06.102-.167.159-.106.057-.252.057zm0-.196q.119 0 .188-.072.072-.072.072-.19v-.671q0-.117-.072-.189-.07-.072-.188-.072-.119 0-.19.072-.07.072-.07.189v.67q0 .119.07.191.072.072.19.072zm0-.474q-.06 0-.097-.034-.036-.034-.036-.095 0-.06.036-.091.038-.034.097-.034t.095.034q.038.031.038.09 0 .062-.038.096-.036.034-.095.034zM123.54 219v-.207h.41v-1.126l-.412.305v-.258l.353-.258h.288v1.337h.333v.208zM122.27 219v-.207h.41v-1.126l-.412.305v-.258l.353-.258h.288v1.337h.333v.208zM121.45 219.02q-.22 0-.35-.124-.128-.125-.128-.334v-.671q0-.208.129-.333.129-.125.349-.125.22 0 .35.125.128.125.128.333v.67q0 .14-.059.244-.06.102-.167.159-.106.057-.252.057zm0-.196q.119 0 .188-.072.072-.072.072-.19v-.671q0-.117-.072-.189-.07-.072-.188-.072-.119 0-.19.072-.07.072-.07.189v.67q0 .119.07.191.071.072.19.072zm0-.474q-.06 0-.097-.034-.036-.034-.036-.095 0-.06.036-.091.038-.034.097-.034t.095.034q.038.031.038.09 0 .062-.038.096-.036.034-.095.034zM119.73 219v-.207h.41v-1.126l-.412.305v-.258l.353-.258h.288v1.337h.333v.208zM118.46 219v-.207h.41v-1.126l-.412.305v-.258l.353-.258h.288v1.337h.333v.208zM117.19 219v-.207h.41v-1.126l-.412.305v-.258l.353-.258h.288v1.337h.333v.208zM116.37 219.02q-.22 0-.35-.124-.128-.125-.128-.334v-.671q0-.208.129-.333.129-.125.349-.125.22 0 .35.125.128.125.128.333v.67q0 .14-.059.244-.06.102-.167.159-.106.057-.252.057zm0-.196q.119 0 .188-.072.072-.072.072-.19v-.671q0-.117-.072-.189-.07-.072-.188-.072-.119 0-.19.072-.07.072-.07.189v.67q0 .119.07.191.071.072.19.072zm0-.474q-.06 0-.097-.034-.036-.034-.036-.095 0-.06.036-.091.038-.034.097-.034t.095.034q.038.031.038.09 0 .062-.038.096-.036.034-.095.034zM115.1 219.02q-.22 0-.35-.124-.128-.125-.128-.334v-.671q0-.208.129-.333.129-.125.349-.125t.35.125q.128.125.128.333v.67q0 .14-.059.244-.06.102-.167.159-.106.057-.252.057zm0-.196q.119 0 .188-.072.072-.072.072-.19v-.671q0-.117-.072-.189-.07-.072-.188-.072-.119 0-.19.072-.07.072-.07.189v.67q0 .119.07.191.071.072.19.072zm0-.474q-.06 0-.097-.034-.036-.034-.036-.095 0-.06.036-.091.038-.034.097-.034t.095.034q.038.031.038.09 0 .062-.038.096-.036.034-.095.034zM113.38 219v-.207h.41v-1.126l-.412.305v-.258l.353-.258h.288v1.337h.333v.208zM112.11 219v-.207h.41v-1.126l-.412.305v-.258l.353-.258h.288v1.337h.333v.208zM111.29 219.02q-.22 0-.35-.124-.128-.125-.128-.334v-.671q0-.208.129-.333.129-.125.349-.125t.35.125q.128.125.128.333v.67q0 .14-.059.244-.06.102-.167.159-.106.057-.252.057zm0-.196q.119 0 .188-.072.072-.072.072-.19v-.671q0-.117-.072-.189-.07-.072-.188-.072-.119 0-.19.072-.07.072-.07.189v.67q0 .119.07.191.072.072.19.072zm0-.474q-.06 0-.097-.034-.036-.034-.036-.095 0-.06.036-.091.038-.034.097-.034t.095.034q.038.031.038.09 0 .062-.038.096-.036.034-.095.034zM109.57 219v-.207h.41v-1.126l-.412.305v-.258l.353-.258h.288v1.337h.333v.208zM132.77 216.38q-.22 0-.35-.124-.128-.125-.128-.334v-.671q0-.208.129-.333.129-.125.349-.125.22 0 .35.125t.128.333v.67q0 .14-.059.244-.06.102-.167.159-.106.057-.252.057zm0-.196q.119 0 .188-.072.072-.072.072-.19v-.671q0-.117-.072-.189-.07-.072-.188-.072-.119 0-.19.072-.07.072-.07.189v.67q0 .119.07.191.072.072.19.072zm0-.474q-.06 0-.097-.034-.036-.034-.036-.095 0-.06.036-.091.038-.034.097-.034t.095.034q.038.032.038.09 0 .062-.038.096-.036.034-.095.034zM131.05 216.36v-.207h.41v-1.126l-.412.305v-.258l.353-.258h.288v1.337h.333v.208zM129.78 216.36v-.207h.41v-1.126l-.412.305v-.258l.353-.258h.288v1.337h.333v.208zM128.96 216.38q-.22 0-.35-.124-.128-.125-.128-.334v-.671q0-.208.129-.333t.349-.125.35.125.128.333v.67q0 .14-.059.244-.06.102-.167.159-.106.057-.252.057zm0-.196q.119 0 .188-.072.072-.072.072-.19v-.671q0-.117-.072-.189-.07-.072-.188-.072-.119 0-.19.072-.07.072-.07.189v.67q0 .119.07.191.072.072.19.072zm0-.474q-.06 0-.097-.034-.036-.034-.036-.095 0-.06.036-.091.038-.034.097-.034t.095.034q.038.032.038.09 0 .062-.038.096-.036.034-.095.034zM127.24 216.36v-.207h.41v-1.126l-.412.305v-.258l.353-.258h.288v1.337h.333v.208zM126.42 216.38q-.22 0-.35-.124-.128-.125-.128-.334v-.671q0-.208.129-.333.129-.125.349-.125.22 0 .35.125.128.125.128.333v.67q0 .14-.059.244-.06.102-.167.159-.106.057-.252.057zm0-.196q.119 0 .188-.072.072-.072.072-.19v-.671q0-.117-.072-.189-.07-.072-.188-.072-.119 0-.19.072-.07.072-.07.189v.67q0 .119.07.191.071.072.19.072zm0-.474q-.06 0-.097-.034-.036-.034-.036-.095 0-.06.036-.091.038-.034.097-.034t.095.034q.038.032.038.09 0 .062-.038.096-.036.034-.095.034zM135.38 221.65v-.207h.41v-1.126l-.412.305v-.258l.353-.258h.288v1.337h.333v.208zM134.56 221.67q-.22 0-.35-.124-.128-.125-.128-.334v-.671q0-.208.129-.333.129-.125.349-.125t.35.125q.128.125.128.333v.67q0 .14-.059.244-.06.102-.167.159-.106.057-.252.057zm0-.196q.119 0 .188-.072.072-.072.072-.19v-.672q0-.116-.072-.188-.07-.072-.188-.072-.119 0-.19.072-.07.072-.07.188v.671q0 .119.07.191.072.072.19.072zm0-.474q-.06 0-.097-.034-.036-.034-.036-.095 0-.06.036-.091.038-.034.097-.034t.095.034q.038.031.038.09 0 .062-.038.096-.036.034-.095.034zM132.84 221.65v-.207h.41v-1.126l-.412.305v-.258l.353-.258h.288v1.337h.333v.208zM131.57 221.65v-.207h.41v-1.126l-.412.305v-.258l.353-.258h.288v1.337h.333v.208zM130.75 221.67q-.22 0-.35-.124-.128-.125-.128-.334v-.671q0-.208.129-.333.129-.125.349-.125.22 0 .35.125.128.125.128.333v.67q0 .14-.059.244-.06.102-.167.159-.106.057-.252.057zm0-.196q.119 0 .188-.072.072-.072.072-.19v-.672q0-.116-.072-.188-.07-.072-.188-.072-.119 0-.19.072-.07.072-.07.188v.671q0 .119.07.191.072.072.19.072zm0-.474q-.06 0-.097-.034-.036-.034-.036-.095 0-.06.036-.091.038-.034.097-.034t.095.034q.038.031.038.09 0 .062-.038.096-.036.034-.095.034zM129.03 221.65v-.207h.41v-1.126l-.412.305v-.258l.353-.258h.288v1.337h.333v.208zM127.76 221.65v-.207h.41v-1.126l-.412.305v-.258l.353-.258h.288v1.337h.333v.208zM126.94 221.67q-.22 0-.35-.124-.128-.125-.128-.334v-.671q0-.208.129-.333.129-.125.349-.125.22 0 .35.125.128.125.128.333v.67q0 .14-.059.244-.06.102-.167.159-.106.057-.252.057zm0-.196q.119 0 .188-.072.072-.072.072-.19v-.672q0-.116-.072-.188-.07-.072-.188-.072-.119 0-.19.072-.07.072-.07.188v.671q0 .119.07.191.071.072.19.072zm0-.474q-.06 0-.097-.034-.036-.034-.036-.095 0-.06.036-.091.038-.034.097-.034t.095.034q.038.031.038.09 0 .062-.038.096-.036.034-.095.034zM125.67 221.67q-.22 0-.35-.124-.128-.125-.128-.334v-.671q0-.208.129-.333.129-.125.349-.125t.35.125q.128.125.128.333v.67q0 .14-.059.244-.06.102-.167.159-.106.057-.252.057zm0-.196q.119 0 .188-.072.072-.072.072-.19v-.672q0-.116-.072-.188-.07-.072-.188-.072-.119 0-.19.072-.07.072-.07.188v.671q0 .119.07.191.071.072.19.072zm0-.474q-.06 0-.097-.034-.036-.034-.036-.095 0-.06.036-.091.038-.034.097-.034t.095.034q.038.031.038.09 0 .062-.038.096-.036.034-.095.034zM124.4 221.67q-.22 0-.35-.124-.128-.125-.128-.334v-.671q0-.208.129-.333.129-.125.349-.125.22 0 .35.125.128.125.128.333v.67q0 .14-.059.244-.06.102-.167.159-.106.057-.252.057zm0-.196q.119 0 .188-.072.072-.072.072-.19v-.672q0-.116-.072-.188-.07-.072-.188-.072-.119 0-.19.072-.07.072-.07.188v.671q0 .119.07.191.072.072.19.072zm0-.474q-.06 0-.097-.034-.036-.034-.036-.095 0-.06.036-.091.038-.034.097-.034t.095.034q.038.031.038.09 0 .062-.038.096-.036.034-.095.034zM122.68 221.65v-.207h.41v-1.126l-.412.305v-.258l.353-.258h.288v1.337h.333v.208zM121.86 221.67q-.22 0-.35-.124-.128-.125-.128-.334v-.671q0-.208.129-.333.129-.125.349-.125.22 0 .35.125.128.125.128.333v.67q0 .14-.059.244-.06.102-.167.159-.106.057-.252.057zm0-.196q.119 0 .188-.072.072-.072.072-.19v-.672q0-.116-.072-.188-.07-.072-.188-.072-.119 0-.19.072-.07.072-.07.188v.671q0 .119.07.191.071.072.19.072zm0-.474q-.06 0-.097-.034-.036-.034-.036-.095 0-.06.036-.091.038-.034.097-.034t.095.034q.038.031.038.09 0 .062-.038.096-.036.034-.095.034zM120.14 221.65v-.207h.41v-1.126l-.412.305v-.258l.353-.258h.288v1.337h.333v.208zM118.87 221.65v-.207h.41v-1.126l-.412.305v-.258l.353-.258h.288v1.337h.333v.208zM118.05 221.67q-.22 0-.35-.124-.128-.125-.128-.334v-.671q0-.208.129-.333.129-.125.349-.125.22 0 .35.125.128.125.128.333v.67q0 .14-.059.244-.06.102-.167.159-.106.057-.252.057zm0-.196q.119 0 .188-.072.072-.072.072-.19v-.672q0-.116-.072-.188-.07-.072-.188-.072-.119 0-.19.072-.07.072-.07.188v.671q0 .119.07.191.071.072.19.072zm0-.474q-.06 0-.097-.034-.036-.034-.036-.095 0-.06.036-.091.038-.034.097-.034t.095.034q.038.031.038.09 0 .062-.038.096-.036.034-.095.034zM116.78 221.67q-.22 0-.35-.124-.128-.125-.128-.334v-.671q0-.208.129-.333.129-.125.349-.125.22 0 .35.125.128.125.128.333v.67q0 .14-.059.244-.06.102-.167.159-.106.057-.252.057zm0-.196q.119 0 .188-.072.072-.072.072-.19v-.672q0-.116-.072-.188-.07-.072-.188-.072-.119 0-.19.072-.07.072-.07.188v.671q0 .119.07.191.071.072.19.072zm0-.474q-.06 0-.097-.034-.036-.034-.036-.095 0-.06.036-.091.038-.034.097-.034t.095.034q.038.031.038.09 0 .062-.038.096-.036.034-.095.034zM115.51 221.67q-.22 0-.35-.124-.128-.125-.128-.334v-.671q0-.208.129-.333.129-.125.349-.125t.35.125q.128.125.128.333v.67q0 .14-.059.244-.06.102-.167.159-.106.057-.252.057zm0-.196q.119 0 .188-.072.072-.072.072-.19v-.672q0-.116-.072-.188-.07-.072-.188-.072-.119 0-.19.072-.07.072-.07.188v.671q0 .119.07.191.072.072.19.072zm0-.474q-.06 0-.097-.034-.036-.034-.036-.095 0-.06.036-.091.038-.034.097-.034t.095.034q.038.031.038.09 0 .062-.038.096-.036.034-.095.034zM114.24 221.67q-.22 0-.35-.124-.128-.125-.128-.334v-.671q0-.208.129-.333.129-.125.349-.125.22 0 .35.125.128.125.128.333v.67q0 .14-.059.244-.06.102-.167.159-.106.057-.252.057zm0-.196q.119 0 .188-.072.072-.072.072-.19v-.672q0-.116-.072-.188-.07-.072-.188-.072-.119 0-.19.072-.07.072-.07.188v.671q0 .119.07.191.071.072.19.072zm0-.474q-.06 0-.097-.034-.036-.034-.036-.095 0-.06.036-.091.038-.034.097-.034t.095.034q.038.031.038.09 0 .062-.038.096-.036.034-.095.034zM112.97 221.67q-.22 0-.35-.124-.128-.125-.128-.334v-.671q0-.208.129-.333.129-.125.349-.125.22 0 .35.125.128.125.128.333v.67q0 .14-.059.244-.06.102-.167.159-.106.057-.252.057zm0-.196q.119 0 .188-.072.072-.072.072-.19v-.672q0-.116-.072-.188-.07-.072-.188-.072-.119 0-.19.072-.07.072-.07.188v.671q0 .119.07.191.071.072.19.072zm0-.474q-.06 0-.097-.034-.036-.034-.036-.095 0-.06.036-.091.038-.034.097-.034t.095.034q.038.031.038.09 0 .062-.038.096-.036.034-.095.034zM111.25 221.65v-.207h.41v-1.126l-.412.305v-.258l.353-.258h.288v1.337h.333v.208zM109.98 221.65v-.207h.41v-1.126l-.412.305v-.258l.353-.258h.288v1.337h.333v.208zM109.16 221.67q-.22 0-.35-.124-.128-.125-.128-.334v-.671q0-.208.129-.333.129-.125.349-.125.22 0 .35.125.128.125.128.333v.67q0 .14-.059.244-.06.102-.167.159-.106.057-.252.057zm0-.196q.119 0 .188-.072.072-.072.072-.19v-.672q0-.116-.072-.188-.07-.072-.188-.072-.119 0-.19.072-.07.072-.07.188v.671q0 .119.07.191.071.072.19.072zm0-.474q-.06 0-.097-.034-.036-.034-.036-.095 0-.06.036-.091.038-.034.097-.034t.095.034q.038.031.038.09 0 .062-.038.096-.036.034-.095.034zM133.7 219v-.207h.41v-1.126l-.412.305v-.258l.353-.258h.288v1.337h.333v.208zM132.43 219v-.207h.41v-1.126l-.412.305v-.258l.353-.258h.288v1.337h.333v.208zM107.94 226.96q-.22 0-.35-.124-.128-.125-.128-.334v-.671q0-.208.129-.333.129-.125.349-.125.22 0 .35.125.128.125.128.333v.67q0 .14-.059.244-.06.102-.167.159-.106.057-.252.057zm0-.196q.119 0 .188-.072.072-.072.072-.19v-.672q0-.116-.072-.188-.07-.072-.188-.072-.119 0-.19.072-.07.072-.07.188v.671q0 .119.07.191.071.072.19.072zm0-.474q-.06 0-.097-.034-.036-.034-.036-.095 0-.06.036-.091.038-.034.097-.034t.095.034q.038.032.038.09 0 .062-.038.096-.036.034-.095.034zM136 224.29v-.207h.41v-1.126l-.412.305v-.258l.353-.258h.288v1.337h.333v.208zM134.73 224.29v-.207h.41v-1.126l-.412.305v-.258l.353-.258h.288v1.337h.333v.208zM133.91 224.32q-.22 0-.35-.124-.128-.125-.128-.334v-.671q0-.208.129-.333t.349-.125.35.125.128.333v.67q0 .14-.059.244-.06.102-.167.159-.106.057-.252.057zm0-.196q.119 0 .188-.072.072-.072.072-.19v-.671q0-.117-.072-.189-.07-.072-.188-.072-.119 0-.19.072-.07.072-.07.189v.67q0 .119.07.191.072.072.19.072zm0-.474q-.06 0-.097-.034-.036-.034-.036-.095 0-.06.036-.091.038-.034.097-.034t.095.034q.038.032.038.09 0 .062-.038.096-.036.034-.095.034zM132.19 224.29v-.207h.41v-1.126l-.412.305v-.258l.353-.258h.288v1.337h.333v.208zM131.37 224.32q-.22 0-.35-.124-.128-.125-.128-.334v-.671q0-.208.129-.333.129-.125.349-.125.22 0 .35.125.128.125.128.333v.67q0 .14-.059.244-.06.102-.167.159-.106.057-.252.057zm0-.196q.119 0 .188-.072.072-.072.072-.19v-.671q0-.117-.072-.189-.07-.072-.188-.072-.119 0-.19.072-.07.072-.07.189v.67q0 .119.07.191.072.072.19.072zm0-.474q-.06 0-.097-.034-.036-.034-.036-.095 0-.06.036-.091.038-.034.097-.034t.095.034q.038.032.038.09 0 .062-.038.096-.036.034-.095.034zM130.1 224.32q-.22 0-.35-.124-.128-.125-.128-.334v-.671q0-.208.129-.333t.349-.125.35.125.128.333v.67q0 .14-.059.244-.06.102-.167.159-.106.057-.252.057zm0-.196q.119 0 .188-.072.072-.072.072-.19v-.671q0-.117-.072-.189-.07-.072-.188-.072-.119 0-.19.072-.07.072-.07.189v.67q0 .119.07.191.072.072.19.072zm0-.474q-.06 0-.097-.034-.036-.034-.036-.095 0-.06.036-.091.038-.034.097-.034t.095.034q.038.032.038.09 0 .062-.038.096-.036.034-.095.034zM128.38 224.29v-.207h.41v-1.126l-.412.305v-.258l.353-.258h.288v1.337h.333v.208zM127.56 224.32q-.22 0-.35-.124-.128-.125-.128-.334v-.671q0-.208.129-.333.129-.125.349-.125.22 0 .35.125.128.125.128.333v.67q0 .14-.059.244-.06.102-.167.159-.106.057-.252.057zm0-.196q.119 0 .188-.072.072-.072.072-.19v-.671q0-.117-.072-.189-.07-.072-.188-.072-.119 0-.19.072-.07.072-.07.189v.67q0 .119.07.191.071.072.19.072zm0-.474q-.06 0-.097-.034-.036-.034-.036-.095 0-.06.036-.091.038-.034.097-.034t.095.034q.038.032.038.09 0 .062-.038.096-.036.034-.095.034zM125.84 224.29v-.207h.41v-1.126l-.412.305v-.258l.353-.258h.288v1.337h.333v.208zM125.02 224.32q-.22 0-.35-.124-.128-.125-.128-.334v-.671q0-.208.129-.333t.349-.125.35.125.128.333v.67q0 .14-.059.244-.06.102-.167.159-.106.057-.252.057zm0-.196q.119 0 .188-.072.072-.072.072-.19v-.671q0-.117-.072-.189-.07-.072-.188-.072-.119 0-.19.072-.07.072-.07.189v.67q0 .119.07.191.071.072.19.072zm0-.474q-.06 0-.097-.034-.036-.034-.036-.095 0-.06.036-.091.038-.034.097-.034t.095.034q.038.032.038.09 0 .062-.038.096-.036.034-.095.034zM123.75 224.32q-.22 0-.35-.124-.128-.125-.128-.334v-.671q0-.208.129-.333.129-.125.349-.125.22 0 .35.125.128.125.128.333v.67q0 .14-.059.244-.06.102-.167.159-.106.057-.252.057zm0-.196q.119 0 .188-.072.072-.072.072-.19v-.671q0-.117-.072-.189-.07-.072-.188-.072-.119 0-.19.072-.07.072-.07.189v.67q0 .119.07.191.071.072.19.072zm0-.474q-.06 0-.097-.034-.036-.034-.036-.095 0-.06.036-.091.038-.034.097-.034t.095.034q.038.032.038.09 0 .062-.038.096-.036.034-.095.034zM122.03 224.29v-.207h.41v-1.126l-.412.305v-.258l.353-.258h.288v1.337h.333v.208zM120.76 224.29v-.207h.41v-1.126l-.412.305v-.258l.353-.258h.288v1.337h.333v.208zM119.94 224.32q-.22 0-.35-.124-.128-.125-.128-.334v-.671q0-.208.129-.333t.349-.125.35.125.128.333v.67q0 .14-.059.244-.06.102-.167.159-.106.057-.252.057zm0-.196q.119 0 .188-.072.072-.072.072-.19v-.671q0-.117-.072-.189-.07-.072-.188-.072-.119 0-.19.072-.07.072-.07.189v.67q0 .119.07.191.071.072.19.072zm0-.474q-.06 0-.097-.034-.036-.034-.036-.095 0-.06.036-.091.038-.034.097-.034t.095.034q.038.032.038.09 0 .062-.038.096-.036.034-.095.034zM118.22 224.29v-.207h.41v-1.126l-.412.305v-.258l.353-.258h.288v1.337h.333v.208zM116.95 224.29v-.207h.41v-1.126l-.412.305v-.258l.353-.258h.288v1.337h.333v.208zM116.13 224.32q-.22 0-.35-.124-.128-.125-.128-.334v-.671q0-.208.129-.333t.349-.125.35.125.128.333v.67q0 .14-.059.244-.06.102-.167.159-.106.057-.252.057zm0-.196q.119 0 .188-.072.072-.072.072-.19v-.671q0-.117-.072-.189-.07-.072-.188-.072-.119 0-.19.072-.07.072-.07.189v.67q0 .119.07.191.071.072.19.072zm0-.474q-.06 0-.097-.034-.036-.034-.036-.095 0-.06.036-.091.038-.034.097-.034t.095.034q.038.032.038.09 0 .062-.038.096-.036.034-.095.034zM114.41 224.29v-.207h.41v-1.126l-.412.305v-.258l.353-.258h.288v1.337h.333v.208zM113.59 224.32q-.22 0-.35-.124-.128-.125-.128-.334v-.671q0-.208.129-.333.129-.125.349-.125.22 0 .35.125.128.125.128.333v.67q0 .14-.059.244-.06.102-.167.159-.106.057-.252.057zm0-.196q.119 0 .188-.072.072-.072.072-.19v-.671q0-.117-.072-.189-.07-.072-.188-.072-.119 0-.19.072-.07.072-.07.189v.67q0 .119.07.191.071.072.19.072zm0-.474q-.06 0-.097-.034-.036-.034-.036-.095 0-.06.036-.091.038-.034.097-.034t.095.034q.038.032.038.09 0 .062-.038.096-.036.034-.095.034zM111.87 224.29v-.207h.41v-1.126l-.412.305v-.258l.353-.258h.288v1.337h.333v.208zM110.6 224.29v-.207h.41v-1.126l-.412.305v-.258l.353-.258h.288v1.337h.333v.208zM109.78 224.32q-.22 0-.35-.124-.128-.125-.128-.334v-.671q0-.208.129-.333.129-.125.349-.125.22 0 .35.125.128.125.128.333v.67q0 .14-.059.244-.06.102-.167.159-.106.057-.252.057zm0-.196q.119 0 .188-.072.072-.072.072-.19v-.671q0-.117-.072-.189-.07-.072-.188-.072-.119 0-.19.072-.07.072-.07.189v.67q0 .119.07.191.071.072.19.072zm0-.474q-.06 0-.097-.034-.036-.034-.036-.095 0-.06.036-.091.038-.034.097-.034t.095.034q.038.032.038.09 0 .062-.038.096-.036.034-.095.034zM108.06 224.29v-.207h.41v-1.126l-.412.305v-.258l.353-.258h.288v1.337h.333v.208zM108.59 229.61q-.22 0-.35-.124-.128-.125-.128-.334v-.671q0-.208.129-.333.129-.125.349-.125.22 0 .35.125.128.125.128.333v.67q0 .14-.059.244-.06.102-.167.159-.106.057-.252.057zm0-.196q.119 0 .188-.072.072-.072.072-.19v-.672q0-.116-.072-.188-.07-.072-.188-.072-.119 0-.19.072-.07.072-.07.188v.671q0 .119.07.191.071.072.19.072zm0-.474q-.06 0-.097-.034-.036-.034-.036-.095 0-.06.036-.091.038-.034.097-.034t.095.034q.038.031.038.09 0 .062-.038.096-.036.034-.095.034zM136.7 226.94v-.207h.41v-1.126l-.412.305v-.258l.353-.258h.288v1.337h.333v.208zM135.88 226.96q-.22 0-.35-.124-.128-.125-.128-.334v-.671q0-.208.129-.333.129-.125.349-.125.22 0 .35.125.128.125.128.333v.67q0 .14-.059.244-.06.102-.167.159-.106.057-.252.057zm0-.196q.119 0 .188-.072.072-.072.072-.19v-.672q0-.116-.072-.188-.07-.072-.188-.072-.119 0-.19.072-.07.072-.07.188v.671q0 .119.07.191.072.072.19.072zm0-.474q-.06 0-.097-.034-.036-.034-.036-.095 0-.06.036-.091.038-.034.097-.034t.095.034q.038.032.038.09 0 .062-.038.096-.036.034-.095.034zM134.61 226.96q-.22 0-.35-.124-.128-.125-.128-.334v-.671q0-.208.129-.333.129-.125.349-.125.22 0 .35.125.128.125.128.333v.67q0 .14-.059.244-.06.102-.167.159-.106.057-.252.057zm0-.196q.119 0 .188-.072.072-.072.072-.19v-.672q0-.116-.072-.188-.07-.072-.188-.072-.119 0-.19.072-.07.072-.07.188v.671q0 .119.07.191.072.072.19.072zm0-.474q-.06 0-.097-.034-.036-.034-.036-.095 0-.06.036-.091.038-.034.097-.034t.095.034q.038.032.038.09 0 .062-.038.096-.036.034-.095.034zM132.89 226.94v-.207h.41v-1.126l-.412.305v-.258l.353-.258h.288v1.337h.333v.208zM132.07 226.96q-.22 0-.35-.124-.128-.125-.128-.334v-.671q0-.208.129-.333.129-.125.349-.125.22 0 .35.125.128.125.128.333v.67q0 .14-.059.244-.06.102-.167.159-.106.057-.252.057zm0-.196q.119 0 .188-.072.072-.072.072-.19v-.672q0-.116-.072-.188-.07-.072-.188-.072-.119 0-.19.072-.07.072-.07.188v.671q0 .119.07.191.072.072.19.072zm0-.474q-.06 0-.097-.034-.036-.034-.036-.095 0-.06.036-.091.038-.034.097-.034t.095.034q.038.032.038.09 0 .062-.038.096-.036.034-.095.034zM130.8 226.96q-.22 0-.35-.124-.128-.125-.128-.334v-.671q0-.208.129-.333.129-.125.349-.125.22 0 .35.125.128.125.128.333v.67q0 .14-.059.244-.06.102-.167.159-.106.057-.252.057zm0-.196q.119 0 .188-.072.072-.072.072-.19v-.672q0-.116-.072-.188-.07-.072-.188-.072-.119 0-.19.072-.07.072-.07.188v.671q0 .119.07.191.072.072.19.072zm0-.474q-.06 0-.097-.034-.036-.034-.036-.095 0-.06.036-.091.038-.034.097-.034t.095.034q.038.032.038.09 0 .062-.038.096-.036.034-.095.034zM129.08 226.94v-.207h.41v-1.126l-.412.305v-.258l.353-.258h.288v1.337h.333v.208zM128.26 226.96q-.22 0-.35-.124t-.128-.334v-.671q0-.208.129-.333.129-.125.349-.125t.35.125q.128.125.128.333v.67q0 .14-.059.244-.06.102-.167.159-.106.057-.252.057zm0-.196q.119 0 .188-.072.072-.072.072-.19v-.672q0-.116-.072-.188-.07-.072-.188-.072-.119 0-.19.072-.07.072-.07.188v.671q0 .119.07.191.072.072.19.072zm0-.474q-.06 0-.097-.034-.036-.034-.036-.095 0-.06.036-.091.038-.034.097-.034t.095.034q.038.032.038.09 0 .062-.038.096-.036.034-.095.034zM126.54 226.94v-.207h.41v-1.126l-.412.305v-.258l.353-.258h.288v1.337h.333v.208zM125.72 226.96q-.22 0-.35-.124-.128-.125-.128-.334v-.671q0-.208.129-.333.129-.125.349-.125.22 0 .35.125.128.125.128.333v.67q0 .14-.059.244-.06.102-.167.159-.106.057-.252.057zm0-.196q.119 0 .188-.072.072-.072.072-.19v-.672q0-.116-.072-.188-.07-.072-.188-.072-.119 0-.19.072-.07.072-.07.188v.671q0 .119.07.191.071.072.19.072zm0-.474q-.06 0-.097-.034-.036-.034-.036-.095 0-.06.036-.091.038-.034.097-.034t.095.034q.038.032.038.09 0 .062-.038.096-.036.034-.095.034zM124.45 226.96q-.22 0-.35-.124t-.128-.334v-.671q0-.208.129-.333.129-.125.349-.125t.35.125q.128.125.128.333v.67q0 .14-.059.244-.06.102-.167.159-.106.057-.252.057zm0-.196q.119 0 .188-.072.072-.072.072-.19v-.672q0-.116-.072-.188-.07-.072-.188-.072-.119 0-.19.072-.07.072-.07.188v.671q0 .119.07.191.071.072.19.072zm0-.474q-.06 0-.097-.034-.036-.034-.036-.095 0-.06.036-.091.038-.034.097-.034t.095.034q.038.032.038.09 0 .062-.038.096-.036.034-.095.034zM123.18 226.96q-.22 0-.35-.124-.128-.125-.128-.334v-.671q0-.208.129-.333.129-.125.349-.125.22 0 .35.125.128.125.128.333v.67q0 .14-.059.244-.06.102-.167.159-.106.057-.252.057zm0-.196q.119 0 .188-.072.072-.072.072-.19v-.672q0-.116-.072-.188-.07-.072-.188-.072-.119 0-.19.072-.07.072-.07.188v.671q0 .119.07.191.072.072.19.072zm0-.474q-.06 0-.097-.034-.036-.034-.036-.095 0-.06.036-.091.038-.034.097-.034t.095.034q.038.032.038.09 0 .062-.038.096-.036.034-.095.034zM121.46 226.94v-.207h.41v-1.126l-.412.305v-.258l.353-.258h.288v1.337h.333v.208zM120.64 226.96q-.22 0-.35-.124-.128-.125-.128-.334v-.671q0-.208.129-.333.129-.125.349-.125.22 0 .35.125.128.125.128.333v.67q0 .14-.059.244-.06.102-.167.159-.106.057-.252.057zm0-.196q.119 0 .188-.072.072-.072.072-.19v-.672q0-.116-.072-.188-.07-.072-.188-.072-.119 0-.19.072-.07.072-.07.188v.671q0 .119.07.191.071.072.19.072zm0-.474q-.06 0-.097-.034-.036-.034-.036-.095 0-.06.036-.091.038-.034.097-.034t.095.034q.038.032.038.09 0 .062-.038.096-.036.034-.095.034zM118.92 226.94v-.207h.41v-1.126l-.412.305v-.258l.353-.258h.288v1.337h.333v.208zM117.65 226.94v-.207h.41v-1.126l-.412.305v-.258l.353-.258h.288v1.337h.333v.208zM116.38 226.94v-.207h.41v-1.126l-.412.305v-.258l.353-.258h.288v1.337h.333v.208zM115.11 226.94v-.207h.41v-1.126l-.412.305v-.258l.353-.258h.288v1.337h.333v.208zM114.29 226.96q-.22 0-.35-.124t-.128-.334v-.671q0-.208.129-.333.129-.125.349-.125t.35.125q.128.125.128.333v.67q0 .14-.059.244-.06.102-.167.159-.106.057-.252.057zm0-.196q.119 0 .188-.072.072-.072.072-.19v-.672q0-.116-.072-.188-.07-.072-.188-.072-.119 0-.19.072-.07.072-.07.188v.671q0 .119.07.191.072.072.19.072zm0-.474q-.06 0-.097-.034-.036-.034-.036-.095 0-.06.036-.091.038-.034.097-.034t.095.034q.038.032.038.09 0 .062-.038.096-.036.034-.095.034zM112.57 226.94v-.207h.41v-1.126l-.412.305v-.258l.353-.258h.288v1.337h.333v.208zM111.75 226.96q-.22 0-.35-.124-.128-.125-.128-.334v-.671q0-.208.129-.333.129-.125.349-.125.22 0 .35.125.128.125.128.333v.67q0 .14-.059.244-.06.102-.167.159-.106.057-.252.057zm0-.196q.119 0 .188-.072.072-.072.072-.19v-.672q0-.116-.072-.188-.07-.072-.188-.072-.119 0-.19.072-.07.072-.07.188v.671q0 .119.07.191.071.072.19.072zm0-.474q-.06 0-.097-.034-.036-.034-.036-.095 0-.06.036-.091.038-.034.097-.034t.095.034q.038.032.038.09 0 .062-.038.096-.036.034-.095.034zM110.48 226.96q-.22 0-.35-.124t-.128-.334v-.671q0-.208.129-.333.129-.125.349-.125t.35.125q.128.125.128.333v.67q0 .14-.059.244-.06.102-.167.159-.106.057-.252.057zm0-.196q.119 0 .188-.072.072-.072.072-.19v-.672q0-.116-.072-.188-.07-.072-.188-.072-.119 0-.19.072-.07.072-.07.188v.671q0 .119.07.191.071.072.19.072zm0-.474q-.06 0-.097-.034-.036-.034-.036-.095 0-.06.036-.091.038-.034.097-.034t.095.034q.038.032.038.09 0 .062-.038.096-.036.034-.095.034zM108.76 226.94v-.207h.41v-1.126l-.412.305v-.258l.353-.258h.288v1.337h.333v.208zM110.06 232.23v-.207h.41v-1.126l-.412.305v-.258l.353-.258h.288v1.337h.333v.208zM109.24 232.25q-.22 0-.35-.124-.128-.125-.128-.334v-.671q0-.208.129-.333.129-.125.349-.125.22 0 .35.125.128.125.128.333v.67q0 .14-.059.244-.06.102-.167.159-.106.057-.252.057zm0-.196q.119 0 .188-.072.072-.072.072-.19v-.671q0-.117-.072-.189-.07-.072-.188-.072-.119 0-.19.072-.07.072-.07.189v.67q0 .119.07.191.071.072.19.072zm0-.474q-.06 0-.097-.034-.036-.034-.036-.095 0-.06.036-.091.038-.034.097-.034t.095.034q.038.031.038.09 0 .062-.038.096-.036.034-.095.034zM136.53 229.61q-.22 0-.35-.124-.128-.125-.128-.334v-.671q0-.208.129-.333.129-.125.349-.125.22 0 .35.125.128.125.128.333v.67q0 .14-.059.244-.06.102-.167.159-.106.057-.252.057zm0-.196q.119 0 .188-.072.072-.072.072-.19v-.672q0-.116-.072-.188-.07-.072-.188-.072-.119 0-.19.072-.07.072-.07.188v.671q0 .119.07.191.072.072.19.072zm0-.474q-.06 0-.097-.034-.036-.034-.036-.095 0-.06.036-.091.038-.034.097-.034t.095.034q.038.031.038.09 0 .062-.038.096-.036.034-.095.034zM134.81 229.59v-.207h.41v-1.126l-.412.305v-.258l.353-.258h.288v1.337h.333v.208zM133.99 229.61q-.22 0-.35-.124-.128-.125-.128-.334v-.671q0-.208.129-.333.129-.125.349-.125.22 0 .35.125.128.125.128.333v.67q0 .14-.059.244-.06.102-.167.159-.106.057-.252.057zm0-.196q.119 0 .188-.072.072-.072.072-.19v-.672q0-.116-.072-.188-.07-.072-.188-.072-.119 0-.19.072-.07.072-.07.188v.671q0 .119.07.191.072.072.19.072zm0-.474q-.06 0-.097-.034-.036-.034-.036-.095 0-.06.036-.091.038-.034.097-.034t.095.034q.038.031.038.09 0 .062-.038.096-.036.034-.095.034zM132.27 229.59v-.207h.41v-1.126l-.412.305v-.258l.353-.258h.288v1.337h.333v.208zM131 229.59v-.207h.41v-1.126l-.412.305v-.258l.353-.258h.288v1.337h.333v.208zM130.18 229.61q-.22 0-.35-.124-.128-.125-.128-.334v-.671q0-.208.129-.333.129-.125.349-.125.22 0 .35.125.128.125.128.333v.67q0 .14-.059.244-.06.102-.167.159-.106.057-.252.057zm0-.196q.119 0 .188-.072.072-.072.072-.19v-.672q0-.116-.072-.188-.07-.072-.188-.072-.119 0-.19.072-.07.072-.07.188v.671q0 .119.07.191.072.072.19.072zm0-.474q-.06 0-.097-.034-.036-.034-.036-.095 0-.06.036-.091.038-.034.097-.034t.095.034q.038.031.038.09 0 .062-.038.096-.036.034-.095.034zM128.46 229.59v-.207h.41v-1.126l-.412.305v-.258l.353-.258h.288v1.337h.333v.208zM127.19 229.59v-.207h.41v-1.126l-.412.305v-.258l.353-.258h.288v1.337h.333v.208zM126.37 229.61q-.22 0-.35-.124-.128-.125-.128-.334v-.671q0-.208.129-.333.129-.125.349-.125t.35.125q.128.125.128.333v.67q0 .14-.059.244-.06.102-.167.159-.106.057-.252.057zm0-.196q.119 0 .188-.072.072-.072.072-.19v-.672q0-.116-.072-.188-.07-.072-.188-.072-.119 0-.19.072-.07.072-.07.188v.671q0 .119.07.191.071.072.19.072zm0-.474q-.06 0-.097-.034-.036-.034-.036-.095 0-.06.036-.091.038-.034.097-.034t.095.034q.038.031.038.09 0 .062-.038.096-.036.034-.095.034zM124.65 229.59v-.207h.41v-1.126l-.412.305v-.258l.353-.258h.288v1.337h.333v.208zM123.38 229.59v-.207h.41v-1.126l-.412.305v-.258l.353-.258h.288v1.337h.333v.208zM122.11 229.59v-.207h.41v-1.126l-.412.305v-.258l.353-.258h.288v1.337h.333v.208zM120.84 229.59v-.207h.41v-1.126l-.412.305v-.258l.353-.258h.288v1.337h.333v.208zM120.02 229.61q-.22 0-.35-.124-.128-.125-.128-.334v-.671q0-.208.129-.333.129-.125.349-.125.22 0 .35.125.128.125.128.333v.67q0 .14-.059.244-.06.102-.167.159-.106.057-.252.057zm0-.196q.119 0 .188-.072.072-.072.072-.19v-.672q0-.116-.072-.188-.07-.072-.188-.072-.119 0-.19.072-.07.072-.07.188v.671q0 .119.07.191.071.072.19.072zm0-.474q-.06 0-.097-.034-.036-.034-.036-.095 0-.06.036-.091.038-.034.097-.034t.095.034q.038.031.038.09 0 .062-.038.096-.036.034-.095.034zM118.75 229.61q-.22 0-.35-.124-.128-.125-.128-.334v-.671q0-.208.129-.333.129-.125.349-.125.22 0 .35.125.128.125.128.333v.67q0 .14-.059.244-.06.102-.167.159-.106.057-.252.057zm0-.196q.119 0 .188-.072.072-.072.072-.19v-.672q0-.116-.072-.188-.07-.072-.188-.072-.119 0-.19.072-.07.072-.07.188v.671q0 .119.07.191.071.072.19.072zm0-.474q-.06 0-.097-.034-.036-.034-.036-.095 0-.06.036-.091.038-.034.097-.034t.095.034q.038.031.038.09 0 .062-.038.096-.036.034-.095.034zM117.03 229.59v-.207h.41v-1.126l-.412.305v-.258l.353-.258h.288v1.337h.333v.208zM115.76 229.59v-.207h.41v-1.126l-.412.305v-.258l.353-.258h.288v1.337h.333v.208zM114.94 229.61q-.22 0-.35-.124-.128-.125-.128-.334v-.671q0-.208.129-.333.129-.125.349-.125.22 0 .35.125.128.125.128.333v.67q0 .14-.059.244-.06.102-.167.159-.106.057-.252.057zm0-.196q.119 0 .188-.072.072-.072.072-.19v-.672q0-.116-.072-.188-.07-.072-.188-.072-.119 0-.19.072-.07.072-.07.188v.671q0 .119.07.191.071.072.19.072zm0-.474q-.06 0-.097-.034-.036-.034-.036-.095 0-.06.036-.091.038-.034.097-.034t.095.034q.038.031.038.09 0 .062-.038.096-.036.034-.095.034zM113.22 229.59v-.207h.41v-1.126l-.412.305v-.258l.353-.258h.288v1.337h.333v.208zM112.4 229.61q-.22 0-.35-.124-.128-.125-.128-.334v-.671q0-.208.129-.333.129-.125.349-.125t.35.125q.128.125.128.333v.67q0 .14-.059.244-.06.102-.167.159-.106.057-.252.057zm0-.196q.119 0 .188-.072.072-.072.072-.19v-.672q0-.116-.072-.188-.07-.072-.188-.072-.119 0-.19.072-.07.072-.07.188v.671q0 .119.07.191.072.072.19.072zm0-.474q-.06 0-.097-.034-.036-.034-.036-.095 0-.06.036-.091.038-.034.097-.034t.095.034q.038.031.038.09 0 .062-.038.096-.036.034-.095.034zM111.13 229.61q-.22 0-.35-.124-.128-.125-.128-.334v-.671q0-.208.129-.333.129-.125.349-.125.22 0 .35.125.128.125.128.333v.67q0 .14-.059.244-.06.102-.167.159-.106.057-.252.057zm0-.196q.119 0 .188-.072.072-.072.072-.19v-.672q0-.116-.072-.188-.07-.072-.188-.072-.119 0-.19.072-.07.072-.07.188v.671q0 .119.07.191.071.072.19.072zm0-.474q-.06 0-.097-.034-.036-.034-.036-.095 0-.06.036-.091.038-.034.097-.034t.095.034q.038.031.038.09 0 .062-.038.096-.036.034-.095.034zM109.41 229.59v-.207h.41v-1.126l-.412.305v-.258l.353-.258h.288v1.337h.333v.208zM113.69 234.88v-.207h.41v-1.126l-.412.305v-.258l.353-.258h.288v1.337h.333v.208zM112.87 234.9q-.22 0-.35-.124-.128-.125-.128-.334v-.671q0-.208.129-.333.129-.125.349-.125.22 0 .35.125.128.125.128.333v.67q0 .14-.059.244-.06.102-.167.159-.106.057-.252.057zm0-.196q.119 0 .188-.072.072-.072.072-.19v-.672q0-.116-.072-.188-.07-.072-.188-.072-.119 0-.19.072-.07.072-.07.188v.671q0 .119.07.191.071.072.19.072zm0-.474q-.06 0-.097-.034-.036-.034-.036-.095 0-.06.036-.091.038-.034.097-.034t.095.034q.038.031.038.09 0 .062-.038.096-.036.034-.095.034zM111.15 234.88v-.207h.41v-1.126l-.412.305v-.258l.353-.258h.288v1.337h.333v.208zM109.88 234.88v-.207h.41v-1.126l-.412.305v-.258l.353-.258h.288v1.337h.333v.208zM135.91 232.25q-.22 0-.35-.124-.128-.125-.128-.334v-.671q0-.208.129-.333.129-.125.349-.125.22 0 .35.125.128.125.128.333v.67q0 .14-.059.244-.06.102-.167.159-.106.057-.252.057zm0-.196q.119 0 .188-.072.072-.072.072-.19v-.671q0-.117-.072-.189-.07-.072-.188-.072-.119 0-.19.072-.07.072-.07.189v.67q0 .119.07.191.072.072.19.072zm0-.474q-.06 0-.097-.034-.036-.034-.036-.095 0-.06.036-.091.038-.034.097-.034t.095.034q.038.031.038.09 0 .062-.038.096-.036.034-.095.034zM134.64 232.25q-.22 0-.35-.124-.128-.125-.128-.334v-.671q0-.208.129-.333t.349-.125.35.125.128.333v.67q0 .14-.059.244-.06.102-.167.159-.106.057-.252.057zm0-.196q.119 0 .188-.072.072-.072.072-.19v-.671q0-.117-.072-.189-.07-.072-.188-.072-.119 0-.19.072-.07.072-.07.189v.67q0 .119.07.191.072.072.19.072zm0-.474q-.06 0-.097-.034-.036-.034-.036-.095 0-.06.036-.091.038-.034.097-.034t.095.034q.038.031.038.09 0 .062-.038.096-.036.034-.095.034zM132.92 232.23v-.207h.41v-1.126l-.412.305v-.258l.353-.258h.288v1.337h.333v.208zM131.65 232.23v-.207h.41v-1.126l-.412.305v-.258l.353-.258h.288v1.337h.333v.208zM130.83 232.25q-.22 0-.35-.124-.128-.125-.128-.334v-.671q0-.208.129-.333t.349-.125q.22 0 .35.125.128.125.128.333v.67q0 .14-.059.244-.06.102-.167.159-.106.057-.252.057zm0-.196q.119 0 .188-.072.072-.072.072-.19v-.671q0-.117-.072-.189-.07-.072-.188-.072-.119 0-.19.072-.07.072-.07.189v.67q0 .119.07.191.072.072.19.072zm0-.474q-.06 0-.097-.034-.036-.034-.036-.095 0-.06.036-.091.038-.034.097-.034t.095.034q.038.031.038.09 0 .062-.038.096-.036.034-.095.034zM129.56 232.25q-.22 0-.35-.124-.128-.125-.128-.334v-.671q0-.208.129-.333t.349-.125.35.125.128.333v.67q0 .14-.059.244-.06.102-.167.159-.106.057-.252.057zm0-.196q.119 0 .188-.072.072-.072.072-.19v-.671q0-.117-.072-.189-.07-.072-.188-.072-.119 0-.19.072-.07.072-.07.189v.67q0 .119.07.191.072.072.19.072zm0-.474q-.06 0-.097-.034-.036-.034-.036-.095 0-.06.036-.091.038-.034.097-.034t.095.034q.038.031.038.09 0 .062-.038.096-.036.034-.095.034zM127.84 232.23v-.207h.41v-1.126l-.412.305v-.258l.353-.258h.288v1.337h.333v.208zM126.57 232.23v-.207h.41v-1.126l-.412.305v-.258l.353-.258h.288v1.337h.333v.208zM125.75 232.25q-.22 0-.35-.124-.128-.125-.128-.334v-.671q0-.208.129-.333t.349-.125.35.125.128.333v.67q0 .14-.059.244-.06.102-.167.159-.106.057-.252.057zm0-.196q.119 0 .188-.072.072-.072.072-.19v-.671q0-.117-.072-.189-.07-.072-.188-.072-.119 0-.19.072-.07.072-.07.189v.67q0 .119.07.191.071.072.19.072zm0-.474q-.06 0-.097-.034-.036-.034-.036-.095 0-.06.036-.091.038-.034.097-.034t.095.034q.038.031.038.09 0 .062-.038.096-.036.034-.095.034zM124.48 232.25q-.22 0-.35-.124-.128-.125-.128-.334v-.671q0-.208.129-.333.129-.125.349-.125.22 0 .35.125t.128.333v.67q0 .14-.059.244-.06.102-.167.159-.106.057-.252.057zm0-.196q.119 0 .188-.072.072-.072.072-.19v-.671q0-.117-.072-.189-.07-.072-.188-.072-.119 0-.19.072-.07.072-.07.189v.67q0 .119.07.191.071.072.19.072zm0-.474q-.06 0-.097-.034-.036-.034-.036-.095 0-.06.036-.091.038-.034.097-.034t.095.034q.038.031.038.09 0 .062-.038.096-.036.034-.095.034zM123.21 232.25q-.22 0-.35-.124-.128-.125-.128-.334v-.671q0-.208.129-.333.129-.125.349-.125.22 0 .35.125.128.125.128.333v.67q0 .14-.059.244-.06.102-.167.159-.106.057-.252.057zm0-.196q.119 0 .188-.072.072-.072.072-.19v-.671q0-.117-.072-.189-.07-.072-.188-.072-.119 0-.19.072-.07.072-.07.189v.67q0 .119.07.191.071.072.19.072zm0-.474q-.06 0-.097-.034-.036-.034-.036-.095 0-.06.036-.091.038-.034.097-.034t.095.034q.038.031.038.09 0 .062-.038.096-.036.034-.095.034zM121.94 232.25q-.22 0-.35-.124-.128-.125-.128-.334v-.671q0-.208.129-.333.129-.125.349-.125.22 0 .35.125.128.125.128.333v.67q0 .14-.059.244-.06.102-.167.159-.106.057-.252.057zm0-.196q.119 0 .188-.072.072-.072.072-.19v-.671q0-.117-.072-.189-.07-.072-.188-.072-.119 0-.19.072-.07.072-.07.189v.67q0 .119.07.191.071.072.19.072zm0-.474q-.06 0-.097-.034-.036-.034-.036-.095 0-.06.036-.091.038-.034.097-.034t.095.034q.038.031.038.09 0 .062-.038.096-.036.034-.095.034zM120.67 232.25q-.22 0-.35-.124-.128-.125-.128-.334v-.671q0-.208.129-.333t.349-.125.35.125.128.333v.67q0 .14-.059.244-.06.102-.167.159-.106.057-.252.057zm0-.196q.119 0 .188-.072.072-.072.072-.19v-.671q0-.117-.072-.189-.07-.072-.188-.072-.119 0-.19.072-.07.072-.07.189v.67q0 .119.07.191.071.072.19.072zm0-.474q-.06 0-.097-.034-.036-.034-.036-.095 0-.06.036-.091.038-.034.097-.034t.095.034q.038.031.038.09 0 .062-.038.096-.036.034-.095.034zM118.95 232.23v-.207h.41v-1.126l-.412.305v-.258l.353-.258h.288v1.337h.333v.208zM117.68 232.23v-.207h.41v-1.126l-.412.305v-.258l.353-.258h.288v1.337h.333v.208zM116.41 232.23v-.207h.41v-1.126l-.412.305v-.258l.353-.258h.288v1.337h.333v.208zM115.14 232.23v-.207h.41v-1.126l-.412.305v-.258l.353-.258h.288v1.337h.333v.208zM113.87 232.23v-.207h.41v-1.126l-.412.305v-.258l.353-.258h.288v1.337h.333v.208zM112.6 232.23v-.207h.41v-1.126l-.412.305v-.258l.353-.258h.288v1.337h.333v.208zM111.78 232.25q-.22 0-.35-.124-.128-.125-.128-.334v-.671q0-.208.129-.333t.349-.125.35.125.128.333v.67q0 .14-.059.244-.06.102-.167.159-.106.057-.252.057zm0-.196q.119 0 .188-.072.072-.072.072-.19v-.671q0-.117-.072-.189-.07-.072-.188-.072-.119 0-.19.072-.07.072-.07.189v.67q0 .119.07.191.071.072.19.072zm0-.474q-.06 0-.097-.034-.036-.034-.036-.095 0-.06.036-.091.038-.034.097-.034t.095.034q.038.031.038.09 0 .062-.038.096-.036.034-.095.034zM121.2 237.52v-.207h.41v-1.126l-.412.305v-.258l.353-.259h.288v1.338h.333v.208zM119.93 237.52v-.207h.41v-1.126l-.412.305v-.258l.353-.259h.288v1.338h.333v.208zM119.12 237.55q-.22 0-.35-.124-.128-.125-.128-.334v-.671q0-.208.129-.333.129-.125.349-.125.22 0 .35.125.128.125.128.333v.67q0 .14-.059.244-.06.102-.167.159-.106.057-.252.057zm0-.196q.119 0 .188-.072.072-.072.072-.19v-.672q0-.116-.072-.188-.07-.072-.188-.072-.119 0-.19.072-.07.072-.07.188v.671q0 .119.07.191.071.072.19.072zm0-.474q-.06 0-.097-.034-.036-.034-.036-.095 0-.06.036-.091.038-.034.097-.034t.095.034q.038.032.038.09 0 .062-.038.096-.036.034-.095.034zM117.39 237.52v-.207h.41v-1.126l-.412.305v-.258l.353-.259h.288v1.338h.333v.208zM116.58 237.55q-.22 0-.35-.124-.128-.125-.128-.334v-.671q0-.208.129-.333.129-.125.349-.125.22 0 .35.125.128.125.128.333v.67q0 .14-.059.244-.06.102-.167.159-.106.057-.252.057zm0-.196q.119 0 .188-.072.072-.072.072-.19v-.672q0-.116-.072-.188-.07-.072-.188-.072-.119 0-.19.072-.07.072-.07.188v.671q0 .119.07.191.071.072.19.072zm0-.474q-.06 0-.097-.034-.036-.034-.036-.095 0-.06.036-.091.038-.034.097-.034t.095.034q.038.032.038.09 0 .062-.038.096-.036.034-.095.034zM115.3 237.55q-.22 0-.35-.124-.128-.125-.128-.334v-.671q0-.208.129-.333.129-.125.349-.125.22 0 .35.125.128.125.128.333v.67q0 .14-.059.244-.06.102-.167.159-.106.057-.252.057zm0-.196q.119 0 .188-.072.072-.072.072-.19v-.672q0-.116-.072-.188-.07-.072-.188-.072-.119 0-.19.072-.07.072-.07.188v.671q0 .119.07.191.071.072.19.072zm0-.474q-.06 0-.097-.034-.036-.034-.036-.095 0-.06.036-.091.038-.034.097-.034t.095.034q.038.032.038.09 0 .062-.038.096-.036.034-.095.034zM113.58 237.52v-.207h.41v-1.126l-.412.305v-.258l.353-.259h.288v1.338h.333v.208zM112.76 237.55q-.22 0-.35-.124-.128-.125-.128-.334v-.671q0-.208.129-.333.129-.125.349-.125t.35.125q.128.125.128.333v.67q0 .14-.059.244-.06.102-.167.159-.106.057-.252.057zm0-.196q.119 0 .188-.072.072-.072.072-.19v-.672q0-.116-.072-.188-.07-.072-.188-.072-.119 0-.19.072-.07.072-.07.188v.671q0 .119.07.191.072.072.19.072zm0-.474q-.06 0-.097-.034-.036-.034-.036-.095 0-.06.036-.091.038-.034.097-.034t.095.034q.038.032.038.09 0 .062-.038.096-.036.034-.095.034zM134.46 234.9q-.22 0-.35-.124t-.128-.334v-.671q0-.208.129-.333.129-.125.349-.125t.35.125q.128.125.128.333v.67q0 .14-.059.244-.06.102-.167.159-.106.057-.252.057zm0-.196q.119 0 .188-.072.072-.072.072-.19v-.672q0-.116-.072-.188-.07-.072-.188-.072-.119 0-.19.072-.07.072-.07.188v.671q0 .119.07.191.072.072.19.072zm0-.474q-.06 0-.097-.034-.036-.034-.036-.095 0-.06.036-.091.038-.034.097-.034t.095.034q.038.031.038.09 0 .062-.038.096-.036.034-.095.034zM133.19 234.9q-.22 0-.35-.124-.128-.125-.128-.334v-.671q0-.208.129-.333.129-.125.349-.125.22 0 .35.125.128.125.128.333v.67q0 .14-.059.244-.06.102-.167.159-.106.057-.252.057zm0-.196q.119 0 .188-.072.072-.072.072-.19v-.672q0-.116-.072-.188-.07-.072-.188-.072-.119 0-.19.072-.07.072-.07.188v.671q0 .119.07.191.072.072.19.072zm0-.474q-.06 0-.097-.034-.036-.034-.036-.095 0-.06.036-.091.038-.034.097-.034t.095.034q.038.031.038.09 0 .062-.038.096-.036.034-.095.034zM131.47 234.88v-.207h.41v-1.126l-.412.305v-.258l.353-.258h.288v1.337h.333v.208zM130.65 234.9q-.22 0-.35-.124t-.128-.334v-.671q0-.208.129-.333.129-.125.349-.125.22 0 .35.125.128.125.128.333v.67q0 .14-.059.244-.06.102-.167.159-.106.057-.252.057zm0-.196q.119 0 .188-.072.072-.072.072-.19v-.672q0-.116-.072-.188-.07-.072-.188-.072-.119 0-.19.072-.07.072-.07.188v.671q0 .119.07.191.072.072.19.072zm0-.474q-.06 0-.097-.034-.036-.034-.036-.095 0-.06.036-.091.038-.034.097-.034t.095.034q.038.031.038.09 0 .062-.038.096-.036.034-.095.034zM128.93 234.88v-.207h.41v-1.126l-.412.305v-.258l.353-.258h.288v1.337h.333v.208zM127.66 234.88v-.207h.41v-1.126l-.412.305v-.258l.353-.258h.288v1.337h.333v.208zM126.84 234.9q-.22 0-.35-.124-.128-.125-.128-.334v-.671q0-.208.129-.333.129-.125.349-.125.22 0 .35.125.128.125.128.333v.67q0 .14-.059.244-.06.102-.167.159-.106.057-.252.057zm0-.196q.119 0 .188-.072.072-.072.072-.19v-.672q0-.116-.072-.188-.07-.072-.188-.072-.119 0-.19.072-.07.072-.07.188v.671q0 .119.07.191.071.072.19.072zm0-.474q-.06 0-.097-.034-.036-.034-.036-.095 0-.06.036-.091.038-.034.097-.034t.095.034q.038.031.038.09 0 .062-.038.096-.036.034-.095.034zM125.57 234.9q-.22 0-.35-.124t-.128-.334v-.671q0-.208.129-.333.129-.125.349-.125t.35.125q.128.125.128.333v.67q0 .14-.059.244-.06.102-.167.159-.106.057-.252.057zm0-.196q.119 0 .188-.072.072-.072.072-.19v-.672q0-.116-.072-.188-.07-.072-.188-.072-.119 0-.19.072-.07.072-.07.188v.671q0 .119.07.191.071.072.19.072zm0-.474q-.06 0-.097-.034-.036-.034-.036-.095 0-.06.036-.091.038-.034.097-.034t.095.034q.038.031.038.09 0 .062-.038.096-.036.034-.095.034zM124.3 234.9q-.22 0-.35-.124-.128-.125-.128-.334v-.671q0-.208.129-.333.129-.125.349-.125.22 0 .35.125.128.125.128.333v.67q0 .14-.059.244-.06.102-.167.159-.106.057-.252.057zm0-.196q.119 0 .188-.072.072-.072.072-.19v-.672q0-.116-.072-.188-.07-.072-.188-.072-.119 0-.19.072-.07.072-.07.188v.671q0 .119.07.191.071.072.19.072zm0-.474q-.06 0-.097-.034-.036-.034-.036-.095 0-.06.036-.091.038-.034.097-.034t.095.034q.038.031.038.09 0 .062-.038.096-.036.034-.095.034zM123.03 234.9q-.22 0-.35-.124-.128-.125-.128-.334v-.671q0-.208.129-.333.129-.125.349-.125.22 0 .35.125.128.125.128.333v.67q0 .14-.059.244-.06.102-.167.159-.106.057-.252.057zm0-.196q.119 0 .188-.072.072-.072.072-.19v-.672q0-.116-.072-.188-.07-.072-.188-.072-.119 0-.19.072-.07.072-.07.188v.671q0 .119.07.191.071.072.19.072zm0-.474q-.06 0-.097-.034-.036-.034-.036-.095 0-.06.036-.091.038-.034.097-.034t.095.034q.038.031.038.09 0 .062-.038.096-.036.034-.095.034zM121.31 234.88v-.207h.41v-1.126l-.412.305v-.258l.353-.258h.288v1.337h.333v.208zM120.49 234.9q-.22 0-.35-.124t-.128-.334v-.671q0-.208.129-.333.129-.125.349-.125t.35.125q.128.125.128.333v.67q0 .14-.059.244-.06.102-.167.159-.106.057-.252.057zm0-.196q.119 0 .188-.072.072-.072.072-.19v-.672q0-.116-.072-.188-.07-.072-.188-.072-.119 0-.19.072-.07.072-.07.188v.671q0 .119.07.191.071.072.19.072zm0-.474q-.06 0-.097-.034-.036-.034-.036-.095 0-.06.036-.091.038-.034.097-.034t.095.034q.038.031.038.09 0 .062-.038.096-.036.034-.095.034zM118.77 234.88v-.207h.41v-1.126l-.412.305v-.258l.353-.258h.288v1.337h.333v.208zM117.95 234.9q-.22 0-.35-.124-.128-.125-.128-.334v-.671q0-.208.129-.333.129-.125.349-.125.22 0 .35.125.128.125.128.333v.67q0 .14-.059.244-.06.102-.167.159-.106.057-.252.057zm0-.196q.119 0 .188-.072.072-.072.072-.19v-.672q0-.116-.072-.188-.07-.072-.188-.072-.119 0-.19.072-.07.072-.07.188v.671q0 .119.07.191.071.072.19.072zm0-.474q-.06 0-.097-.034-.036-.034-.036-.095 0-.06.036-.091.038-.034.097-.034t.095.034q.038.031.038.09 0 .062-.038.096-.036.034-.095.034zM116.68 234.9q-.22 0-.35-.124t-.128-.334v-.671q0-.208.129-.333.129-.125.349-.125.22 0 .35.125.128.125.128.333v.67q0 .14-.059.244-.06.102-.167.159-.106.057-.252.057zm0-.196q.119 0 .188-.072.072-.072.072-.19v-.672q0-.116-.072-.188-.07-.072-.188-.072-.119 0-.19.072-.07.072-.07.188v.671q0 .119.07.191.072.072.19.072zm0-.474q-.06 0-.097-.034-.036-.034-.036-.095 0-.06.036-.091.038-.034.097-.034t.095.034q.038.031.038.09 0 .062-.038.096-.036.034-.095.034zM115.41 234.9q-.22 0-.35-.124t-.128-.334v-.671q0-.208.129-.333.129-.125.349-.125t.35.125q.128.125.128.333v.67q0 .14-.059.244-.06.102-.167.159-.106.057-.252.057zm0-.196q.119 0 .188-.072.072-.072.072-.19v-.672q0-.116-.072-.188-.07-.072-.188-.072-.119 0-.19.072-.07.072-.07.188v.671q0 .119.07.191.071.072.19.072zm0-.474q-.06 0-.097-.034-.036-.034-.036-.095 0-.06.036-.091.038-.034.097-.034t.095.034q.038.031.038.09 0 .062-.038.096-.036.034-.095.034zM128.72 240.17v-.207h.41v-1.126l-.412.305v-.258l.353-.258h.288v1.337h.333v.208zM127.45 240.17v-.207h.41v-1.126l-.412.305v-.258l.353-.258h.288v1.337h.333v.208zM126.63 240.19a.481.481 0 0 1-.35-.124.444.444 0 0 1-.128-.334v-.671a.44.44 0 0 1 .129-.333.481.481 0 0 1 .349-.125.48.48 0 0 1 .35.125.44.44 0 0 1 .128.333v.67c0 .094-.02.175-.059.244a.413.413 0 0 1-.167.159.523.523 0 0 1-.252.057zm0-.196a.25.25 0 0 0 .188-.072.258.258 0 0 0 .072-.19v-.671a.255.255 0 0 0-.072-.189.25.25 0 0 0-.188-.072.257.257 0 0 0-.19.072.26.26 0 0 0-.07.189v.67c0 .08.023.143.07.191a.258.258 0 0 0 .19.072zm0-.474a.141.141 0 0 1-.097-.034.124.124 0 0 1-.036-.095c0-.04.012-.07.036-.091.025-.023.058-.034.097-.034s.071.011.095.034a.112.112 0 0 1 .038.09.12.12 0 0 1-.038.096.133.133 0 0 1-.095.034zM125.36 240.19a.481.481 0 0 1-.35-.124.444.444 0 0 1-.128-.334v-.671a.44.44 0 0 1 .129-.333.481.481 0 0 1 .349-.125.48.48 0 0 1 .35.125.44.44 0 0 1 .128.333v.67c0 .094-.02.175-.059.244a.413.413 0 0 1-.167.159.523.523 0 0 1-.252.057zm0-.196a.25.25 0 0 0 .188-.072.258.258 0 0 0 .072-.19v-.671a.255.255 0 0 0-.072-.189.25.25 0 0 0-.188-.072.257.257 0 0 0-.19.072.259.259 0 0 0-.07.189v.67c0 .08.023.143.07.191a.258.258 0 0 0 .19.072zm0-.474a.141.141 0 0 1-.097-.034.124.124 0 0 1-.036-.095c0-.04.012-.07.036-.091.025-.023.058-.034.097-.034s.071.011.095.034a.112.112 0 0 1 .038.09.12.12 0 0 1-.038.096.133.133 0 0 1-.095.034zM124.09 240.19a.481.481 0 0 1-.35-.124.444.444 0 0 1-.128-.334v-.671a.44.44 0 0 1 .129-.333c.086-.083.202-.125.349-.125s.263.042.35.125a.44.44 0 0 1 .128.333v.67c0 .094-.02.175-.059.244a.413.413 0 0 1-.167.159.523.523 0 0 1-.252.057zm0-.196a.25.25 0 0 0 .188-.072.258.258 0 0 0 .072-.19v-.671a.255.255 0 0 0-.072-.189.25.25 0 0 0-.188-.072.257.257 0 0 0-.19.072.259.259 0 0 0-.07.189v.67c0 .08.023.143.07.191a.258.258 0 0 0 .19.072zm0-.474a.141.141 0 0 1-.097-.034.124.124 0 0 1-.036-.095c0-.04.012-.07.036-.091.025-.023.058-.034.097-.034s.071.011.095.034a.112.112 0 0 1 .038.09.12.12 0 0 1-.038.096.133.133 0 0 1-.095.034zM122.37 240.17v-.207h.41v-1.126l-.412.305v-.258l.353-.258h.288v1.337h.333v.208zM121.1 240.17v-.207h.41v-1.126l-.412.305v-.258l.353-.258h.288v1.337h.333v.208zM120.28 240.19a.481.481 0 0 1-.35-.124.444.444 0 0 1-.128-.334v-.671a.44.44 0 0 1 .129-.333c.086-.083.202-.125.349-.125s.263.042.35.125c.085.084.128.194.128.333v.67c0 .094-.02.175-.059.244a.413.413 0 0 1-.167.159.523.523 0 0 1-.252.057zm0-.196a.25.25 0 0 0 .188-.072.258.258 0 0 0 .072-.19v-.671a.255.255 0 0 0-.072-.189.25.25 0 0 0-.188-.072.257.257 0 0 0-.19.072.259.259 0 0 0-.07.189v.67c0 .08.023.143.07.191a.258.258 0 0 0 .19.072zm0-.474a.141.141 0 0 1-.097-.034.124.124 0 0 1-.036-.095c0-.04.012-.07.036-.091.025-.023.058-.034.097-.034s.071.011.095.034a.112.112 0 0 1 .038.09.12.12 0 0 1-.038.096.133.133 0 0 1-.095.034zM119.01 240.19a.48.48 0 0 1-.35-.124.444.444 0 0 1-.128-.334v-.671a.44.44 0 0 1 .129-.333.481.481 0 0 1 .349-.125c.147 0 .263.042.35.125.085.084.128.194.128.333v.67c0 .094-.02.175-.059.244a.413.413 0 0 1-.167.159.523.523 0 0 1-.252.057zm0-.196a.25.25 0 0 0 .188-.072.258.258 0 0 0 .072-.19v-.671a.255.255 0 0 0-.072-.189.25.25 0 0 0-.188-.072.257.257 0 0 0-.19.072.259.259 0 0 0-.07.189v.67c0 .08.023.143.07.191a.258.258 0 0 0 .19.072zm0-.474a.141.141 0 0 1-.097-.034.124.124 0 0 1-.036-.095c0-.04.012-.07.036-.091.025-.023.058-.034.097-.034s.071.011.095.034a.112.112 0 0 1 .038.09.12.12 0 0 1-.038.096.133.133 0 0 1-.095.034zM117.74 240.19a.48.48 0 0 1-.35-.124.444.444 0 0 1-.128-.334v-.671a.44.44 0 0 1 .129-.333.481.481 0 0 1 .349-.125c.147 0 .263.042.35.125.085.084.128.194.128.333v.67c0 .094-.02.175-.059.244a.413.413 0 0 1-.167.159.523.523 0 0 1-.252.057zm0-.196a.25.25 0 0 0 .188-.072.258.258 0 0 0 .072-.19v-.671a.255.255 0 0 0-.072-.189.25.25 0 0 0-.188-.072.257.257 0 0 0-.19.072.259.259 0 0 0-.07.189v.67c0 .08.023.143.07.191a.258.258 0 0 0 .19.072zm0-.474a.141.141 0 0 1-.097-.034.124.124 0 0 1-.036-.095c0-.04.012-.07.036-.091.025-.023.058-.034.097-.034s.071.011.095.034a.112.112 0 0 1 .038.09.12.12 0 0 1-.038.096.133.133 0 0 1-.095.034zM116.02 240.17v-.207h.41v-1.126l-.412.305v-.258l.353-.258h.288v1.337h.333v.208zM114.75 240.17v-.207h.41v-1.126l-.412.305v-.258l.353-.258h.288v1.337h.333v.208zM133.09 237.55a.48.48 0 0 1-.35-.124.444.444 0 0 1-.128-.334v-.671a.44.44 0 0 1 .129-.333.48.48 0 0 1 .349-.125.48.48 0 0 1 .35.125c.085.084.128.194.128.333v.67c0 .094-.02.175-.059.244a.413.413 0 0 1-.167.159.523.523 0 0 1-.252.057zm0-.196a.25.25 0 0 0 .188-.072.258.258 0 0 0 .072-.19v-.672a.255.255 0 0 0-.072-.188.25.25 0 0 0-.188-.072.257.257 0 0 0-.19.072.259.259 0 0 0-.07.188v.671c0 .08.023.143.07.191a.258.258 0 0 0 .19.072zm0-.474a.141.141 0 0 1-.097-.034.124.124 0 0 1-.036-.095c0-.04.012-.07.036-.091.025-.023.058-.034.097-.034s.071.011.095.034a.112.112 0 0 1 .038.09.12.12 0 0 1-.038.096.133.133 0 0 1-.095.034zM131.36 237.52v-.207h.41v-1.126l-.412.305v-.258l.353-.258H132v1.337h.333v.208zM130.55 237.55a.48.48 0 0 1-.35-.124.444.444 0 0 1-.128-.334v-.671a.44.44 0 0 1 .129-.333c.086-.083.202-.125.349-.125s.263.042.35.125a.44.44 0 0 1 .128.333v.67c0 .094-.02.175-.059.244a.413.413 0 0 1-.167.159.523.523 0 0 1-.252.057zm0-.196a.25.25 0 0 0 .188-.072.258.258 0 0 0 .072-.19v-.672a.255.255 0 0 0-.072-.188.25.25 0 0 0-.188-.072.257.257 0 0 0-.19.072.259.259 0 0 0-.07.188v.671c0 .08.023.143.07.191a.258.258 0 0 0 .19.072zm0-.474a.141.141 0 0 1-.097-.034.124.124 0 0 1-.036-.095c0-.04.012-.07.036-.091.025-.023.058-.034.097-.034s.071.011.095.034a.112.112 0 0 1 .038.09.12.12 0 0 1-.038.096.133.133 0 0 1-.095.034zM128.82 237.52v-.207h.41v-1.126l-.412.305v-.258l.353-.258h.288v1.337h.333v.208zM127.55 237.52v-.207h.41v-1.126l-.412.305v-.258l.353-.258h.288v1.337h.333v.208zM126.74 237.55a.48.48 0 0 1-.35-.124.444.444 0 0 1-.128-.334v-.671a.44.44 0 0 1 .129-.333c.086-.083.202-.125.349-.125s.263.042.35.125a.44.44 0 0 1 .128.333v.67c0 .094-.02.175-.059.244a.413.413 0 0 1-.167.159.523.523 0 0 1-.252.057zm0-.196a.25.25 0 0 0 .188-.072.258.258 0 0 0 .072-.19v-.672a.255.255 0 0 0-.072-.188.25.25 0 0 0-.188-.072.257.257 0 0 0-.19.072.259.259 0 0 0-.07.188v.671c0 .08.023.143.07.191a.258.258 0 0 0 .19.072zm0-.474a.141.141 0 0 1-.097-.034.124.124 0 0 1-.036-.095c0-.04.012-.07.036-.091.025-.023.058-.034.097-.034s.071.011.095.034a.112.112 0 0 1 .038.09.12.12 0 0 1-.038.096.133.133 0 0 1-.095.034zM125.01 237.52v-.207h.41v-1.126l-.412.305v-.258l.353-.258h.288v1.337h.333v.208zM124.2 237.55a.48.48 0 0 1-.35-.124.444.444 0 0 1-.128-.334v-.671a.44.44 0 0 1 .129-.333.48.48 0 0 1 .349-.125c.147 0 .263.042.35.125.085.084.128.194.128.333v.67c0 .094-.02.175-.059.244a.413.413 0 0 1-.167.159.523.523 0 0 1-.252.057zm0-.196a.25.25 0 0 0 .188-.072.258.258 0 0 0 .072-.19v-.672a.255.255 0 0 0-.072-.188.25.25 0 0 0-.188-.072.257.257 0 0 0-.19.072.259.259 0 0 0-.07.188v.671c0 .08.023.143.07.191a.258.258 0 0 0 .19.072zm0-.474a.141.141 0 0 1-.097-.034.124.124 0 0 1-.036-.095c0-.04.012-.07.036-.091.025-.023.058-.034.097-.034s.071.011.095.034a.112.112 0 0 1 .038.09.12.12 0 0 1-.038.096.133.133 0 0 1-.095.034zM122.47 237.52v-.207h.41v-1.126l-.412.305v-.258l.353-.258h.288v1.337h.333v.208z"/></g><g stroke="#0ea9d7"><circle cx="123" cy="226" r="15" fill="#99cad7" fill-opacity=".177" stroke-width="2.7"/><path fill="#626262" stroke-width="3.2" d="M115.78 239.13 107 253.996" paint-order="markers fill stroke"/></g></g></svg>