<svg width="79.578mm" height="95.271mm" version="1.1" viewBox="0 0 79.578 95.271" xml:space="preserve" xmlns="http://www.w3.org/2000/svg"><g transform="translate(-64.319 -159.54)"><g stroke-linecap="round" stroke-linejoin="round"><path d="m64.592 182.68 39.511 22.812v45.292l-39.511-22.81z" fill="#e58329" style="paint-order:stroke fill markers"/><path d="m143.61 182.68v45.305l-39.509 22.809v-45.303z" fill="#fcb043" style="paint-order:stroke fill markers"/><path d="m104.11 159.54 7.6874 4.438 32.097 18.531-39.794 22.976-39.784-22.97z" fill="#ffce94" style="paint-order:stroke fill markers"/></g><path d="m119.97 168.69-1.6133 0.93121 1.296 0.74828-1.296-0.74776-7.6765 4.4318 7.6745 4.4312 7.6765-4.4323 1.6133-0.93173zm-1.6154 9.7948-6.1919-3.5745-1.4826-0.85627-7.5851 4.3791-0.0145-8e-3 -7.6765 4.4318 1.296 0.74827-1.296-0.74775-7.6765 4.4318 7.6745 4.4312 7.6765-4.4323 7.5846-4.3791 0.015 8e-3zm-22.953 13.235-6.1919-3.5745-1.4826-0.85628-7.5659 4.3682v8.7979l7.675 4.4307v-8.7974z" fill="#c1bc06" fill-opacity=".48028" stroke-linecap="round" stroke-linejoin="round" stroke-width=".19291" style="paint-order:stroke fill markers"/><g transform="matrix(.17349 0 0 .17349 66.541 155.12)"><path d="m97.462 325.82c-0.39706-0.27363-1.7929-1.4204-2.2288-1.8312-0.16614-0.15652-0.18872-0.37711-0.19388-1.8931-0.0032-0.94367 0.03038-1.694 0.07465-1.6674 0.04427 0.0265 0.53963 0.43769 1.1008 0.9135 1.5394 1.3054 3.2863 2.3976 4.4007 2.7515 1.051 0.33374 1.5187 0.27909 1.872-0.21872 0.24595-0.34656 0.6506-1.5346 0.56996-1.6734-0.0224-0.0385-0.47479-0.20091-1.0053-0.36093-1.2502-0.37695-3.2616-1.5046-4.2507-2.383-2.2523-2.0003-3.5967-4.5688-4.0305-7.6997-0.20521-1.4814-0.21445-3.9929-0.01871-5.0889 0.46887-2.6261 2.0022-3.6845 4.381-3.0246 1.1623 0.32245 4.3318 2.1494 6.3791 3.6766 0.79655 0.59438 1.525 1.1536 1.6187 1.2427 0.15184 0.14433 0.18085 0.98668 0.2667 7.7456 0.13056 10.281 0.0744 10.94-1.0108 11.826-0.90872 0.74205-2.0511 0.73005-3.8977-0.041-0.84323-0.3521-3.0302-1.587-4.0272-2.274zm4.8175-7.5949 0.77653 0.13544-0.0157-4.1701c-0.0144-3.8401-0.0305-4.1849-0.20371-4.3766-0.10341-0.11448-0.8878-0.64233-1.7431-1.1731-1.4222-0.8825-1.6099-0.97035-2.1973-1.0275-0.81647-0.0795-1.4528 0.37202-1.7225 1.2225-0.15047 0.47448-0.19567 1.0152-0.19033 2.2772 0.0061 1.4302 0.04071 1.7682 0.25502 2.4865 0.30682 1.0283 0.80338 1.9978 1.3676 2.6699 0.60606 0.72201 2.558 1.7612 3.6734 1.9557zm-44.217-21.074c-0.57247-0.42577-2.1355-1.6999-2.5494-2.0783l-0.4026-0.36794-3e-3 -1.8644c-0.0028-1.7497 0.0092-1.8521 0.19523-1.669 2.2492 2.2138 4.8539 4.0347 6.1026 4.2662 0.51003 0.0945 0.88698-0.33366 0.88568-1.0061-8.52e-4 -0.44229-0.06849-0.67373-0.335-1.1463-0.2945-0.52215-0.41806-0.64272-1.0467-1.0213-0.39202-0.23652-0.92997-0.542-1.1954-0.68124-0.26547-0.13835-0.98965-0.61048-1.6093-1.0492-2.511-1.7778-3.5583-3.8108-3.5887-6.9653-0.01817-1.8857 0.211-2.6587 0.94168-3.1766 0.97007-0.68755 2.0413-0.51937 4.3079 0.67628 1.6913 0.89215 3.0542 1.8486 4.4486 3.1221l0.89703 0.81923 0.03376 1.727c0.01857 0.94999-0.0051 1.7549-0.05268 1.7886-0.04755 0.0337-0.39912-0.24189-0.78126-0.61164-1.9629-1.901-4.6775-3.7045-5.7114-3.7946-0.84737-0.0738-1.1446 0.56757-0.77909 1.6813 0.22801 0.69474 0.59436 1.0504 1.8108 1.7578 1.6921 0.98456 3.1812 2.0571 3.8811 2.7968 0.79381 0.8389 1.4711 2.0226 1.8553 3.2426 0.2781 0.88312 0.29904 1.068 0.30237 2.6712 0.0042 2.0163-0.15049 2.5293-0.92939 3.0817-0.96573 0.68494-2.4423 0.35464-4.8925-1.0944-0.80498-0.47622-1.6085-0.97339-1.7856-1.1051zm11.814 6.7117c-0.4664-0.37383-1.179-0.97474-1.5836-1.3354l-0.73558-0.65584-0.0038-1.7542c-0.0021-0.96471 0.02226-1.7724 0.05412-1.795 0.03185-0.0227 0.558 0.41967 1.1692 0.98274 2.0834 1.9194 4.8563 3.6052 5.519 3.3554 0.54552-0.20565 0.56644-1.3685 0.04134-2.2941-0.26398-0.46535-0.35599-0.53798-1.5787-1.2462-2.8038-1.6238-3.9935-2.6502-4.7928-4.1342-0.7304-1.356-0.99965-2.4818-1.0136-4.2374-6e-3 -0.76 0.04945-1.6042 0.1233-1.8761 0.17466-0.64288 0.7255-1.3623 1.2095-1.5797 0.44516-0.19998 1.5382-0.0721 2.6213 0.30658 1.4696 0.51388 4.8122 2.7732 6.4012 4.3265 0.16675 0.163 0.18838 0.39289 0.1927 2.0482 0.0045 1.7196-0.0098 1.8492-0.18303 1.6638-0.10335-0.11062-0.63031-0.60392-1.171-1.0962-2.4292-2.2119-4.9338-3.5811-5.7443-3.1403-0.44911 0.24424-0.30882 1.6242 0.23245 2.2859 0.18283 0.22353 0.95139 0.75934 2.2109 1.5414 2.0767 1.2895 2.8584 1.9235 3.7113 3.0104 1.7591 2.2415 2.2128 6.4825 0.86618 8.1016-0.43165 0.51898-1.0221 0.64823-2.0635 0.45171-0.76437-0.14425-1.125-0.30226-2.757-1.2078-1.2562-0.69705-2.1583-1.2668-2.7257-1.7215zm20.493 11.892c-0.2897-0.23127-0.83201-0.78909-1.2051-1.2398l-0.67838-0.81937-1.0484-0.17267c-0.87103-0.14346-1.2754-0.29206-2.3895-0.87814-2.0008-1.0526-3.4699-2.3851-4.4306-4.0189-1.0829-1.8415-1.4375-4.9604-0.74795-6.5779 0.424-0.99464 1.5702-1.2945 3.117-0.81546 0.85483 0.26472 3.0408 1.4647 4.4181 2.4253l0.83057 0.57927-2e-3 -0.60197c-0.0026-0.75963-0.28166-1.6368-0.72081-2.2653-0.87366-1.2505-3.3663-2.8187-5.6312-3.5428l-1.2511-0.39993-0.07368-1.1529c-0.04052-0.63404-0.05835-1.4224-0.03962-1.7519l0.03406-0.59908 0.72868 0.18708c1.2148 0.3119 2.802 1.0541 4.4119 2.063 2.4381 1.5278 4.0943 3.1978 5.0352 5.077 0.8775 1.7526 0.87636 1.7412 0.89985 8.9714l0.02061 6.3441-0.37546-0.19534c-0.20651-0.10775-0.6125-0.3846-0.9022-0.61574zm-4.0187-6.0235c0.44586 0.11096 1.0581 0.18338 1.3605 0.16096l0.54982-0.0408-0.0346-1.1503-0.0346-1.1502-1.1268-0.82428c-1.1653-0.85245-2.4431-1.5453-3.1302-1.6972-0.4752-0.10508-0.90926 0.26794-1.002 0.86106-0.09975 0.63818 0.28961 1.8281 0.74301 2.2707 0.90456 0.88295 1.634 1.3111 2.6748 1.5701zm-66.758-46.325 1.2e-5 -11.481 3.6198 2.0899 1.7781 6.1466c3.2811 11.343 4.124 14.191 4.2175 14.253 0.09318 0.0614 0.7559-1.4557 4.0748-9.3277l1.7827-4.2282 3.3941 1.9596 0.0098 11.486 0.0098 11.498-3.1119-1.7966-0.0088-7.7482c-5e-3 -4.415-0.0485-7.677-0.1012-7.5898-0.05084 0.0841-1.1164 2.9503-2.3685 6.3704l-2.2776 6.2218-2.9756-1.7179-0.10768-0.44085c-0.05923-0.24246-1.1335-4.3465-2.3869-9.1186l-2.2777-8.672-0.0659 3.1228c-0.03625 1.7179-0.07197 5.1792-0.07935 7.6918l-0.01345 4.57-3.1121-1.7967zm26.427 26.531c-2.6013-2.062-4.1462-4.7333-4.8307-8.3527-0.2626-1.3885-0.26259-4.672-4.8e-5 -5.7539 0.57549-2.3714 1.8226-3.2732 3.889-2.8127 0.94514 0.21064 3.3384 1.5145 4.2502 2.3156 1.5583 1.369 2.5714 2.895 3.1822 4.7937 0.53497 1.6629 0.67778 2.7963 0.63732 5.0588-0.01943 1.0861-0.07348 2.0302-0.12015 2.0978-0.06555 0.0951-1.0586-0.43917-4.3694-2.3506-4.8203-2.7829-4.4869-2.6803-4.0221-1.2385 0.52275 1.6215 1.2404 2.5207 3.1002 3.8845 0.96156 0.70511 3.1234 1.8134 4.3323 2.2219 0.28159 0.095 0.54902 0.22352 0.59429 0.28547 0.04527 0.062 0.08346 0.8786 0.08486 1.8148l0.0025 1.7023-0.40226-0.15087c-1.944-0.72919-4.8486-2.3428-6.3283-3.5157zm3.8199-7.8925c-0.0021-1.5146-0.69315-3.1403-1.6984-3.9956-1.202-1.0227-2.2524-1.371-2.8897-0.95804-0.31482 0.20395-0.65533 0.91207-0.83688 1.7404l-0.068 0.31029 2.7467 1.5858c2.6521 1.5311 2.7467 1.5768 2.7463 1.3172zm63.897 47.06c-0.9476-0.70563-1.5006-1.234-2.352-2.2474-2.1612-2.5721-3.2096-6.049-3.0612-10.15 0.0914-2.525 0.63361-3.9426 1.7572-4.5948 1.0671-0.6194 2.2813-0.43634 4.3472 0.65534 2.1155 1.1178 3.4354 2.3324 4.4324 4.0785 0.63244 1.1076 0.93087 1.8966 1.2892 3.4083 0.2741 1.1565 0.2937 1.3884 0.29801 3.5272 3e-3 1.2594-0.0287 2.3403-0.0694 2.4021-0.0528 0.0804-1.2913-0.59043-4.34-2.3505-2.3463-1.3546-4.2945-2.4426-4.3292-2.4179-0.12037 0.0858 0.37003 1.5797 0.76169 2.3203 0.50935 0.96312 1.2322 1.717 2.5972 2.7085 1.0907 0.79229 2.6697 1.6045 4.3039 2.2138 0.32022 0.11936 0.61855 0.26622 0.66296 0.3264 0.0444 0.06 0.0843 0.88192 0.0885 1.8263 4e-3 0.94447-0.0284 1.6977-0.0727 1.6737-0.0442-0.0242-0.65939-0.28811-1.367-0.58696-1.3713-0.57921-3.8645-1.9867-4.947-2.7928zm3.3947-8.5251c-0.11055-0.87603-0.35-1.8272-0.57001-2.2644-0.56186-1.1164-1.9843-2.2761-3.061-2.4956-0.94909-0.19351-1.3786 0.24921-1.8262 1.8826l-0.0732 0.26727 5.6098 3.2387z"/><path d="m122.96 322.98-0.0537-11.518 4.7963 2.8167c4.7197 2.7717 4.8072 2.8282 5.4815 3.5346 0.90807 0.95123 1.7114 2.264 2.0726 3.3872 0.41412 1.2877 0.60284 2.9239 0.46816 4.0595-0.37333 3.1476-1.9609 4.0821-5.4978 3.2352-1.7096-0.40935-1.6085-0.3113-1.8583-1.8005-0.11592-0.69106-0.21104-1.3126-0.21137-1.3814-3.4e-4 -0.0687 0.51202-7.2e-4 1.1386 0.15107 2.5122 0.60867 3.7287-0.051 3.8886-2.1082 0.0792-1.019-0.2132-2.2594-0.72704-3.0847-0.67436-1.0831-1.3656-1.6037-4.4043-3.3171l-2.7232-1.5354 0.0213 10.221 0.0213 10.231-2.3589-1.3618zm17.486 21.389c-0.84123-0.72414-1.2005-1.1135-1.7037-1.8462-0.88159-1.2838-1.4788-3.3168-1.4881-5.0652-0.0207-3.9092 2.2726-4.3247 6.8407-1.2406 2.1923 1.4801 1.968 1.4565 1.8896 0.19928-0.0933-1.4978-0.32239-2.1578-1.0561-3.0439-1.1849-1.431-3.2599-2.6737-5.6616-3.3908-0.48226-0.14399-0.90137-0.3072-0.93133-0.36267-0.03-0.0555-0.0574-0.64018-0.0609-1.2993l-6e-3 -1.1983 0.82962 0.25514c1.4774 0.45436 2.198 0.7677 3.5081 1.5254 1.3649 0.78929 2.3761 1.5821 3.4344 2.6923 0.86994 0.91254 1.7524 2.5314 2.1133 3.8769 0.26063 0.97166 0.26182 0.99786 0.33409 7.3794l0.0726 6.4079-0.68232-0.39392c-0.65269-0.37681-0.70032-0.42777-1.0973-1.1748l-0.41497-0.78087-0.54699-0.0373c-1.4794-0.10078-3.8837-1.2206-5.3728-2.5024zm4.0621-0.35082c0.4117 0.0745 0.92888 0.12142 1.1493 0.10424l0.40075-0.0312-0.0114-2.0037c-0.0101-1.7801-0.0324-2.0259-0.19962-2.2056-0.35339-0.37987-4.3407-2.6219-4.824-2.7124-0.89963-0.16856-1.5344 0.81192-1.3569 2.0961 0.17744 1.2837 0.79235 2.4542 1.6892 3.2153 0.72122 0.61205 2.3036 1.3836 3.1527 1.5373zm11.439 9.2382c-2.3686-2.0086-3.907-4.6815-4.5482-7.9018-0.21377-1.0737-0.25733-1.6144-0.27014-3.3527-0.0183-2.4167 0.16574-3.3451 0.85487-4.3262 0.74826-1.0653 1.6114-1.3575 3.1669-1.072 0.91198 0.16735 1.0748 0.24133 3.1064 1.411 1.9246 1.1086 3.2767 2.0488 3.4767 2.4188 0.10495 0.1941 0.16199 2.3684 0.0637 2.4297-0.0503 0.0314-0.47802-0.25547-0.95043-0.63736-1.2175-0.98426-3.3704-2.2278-4.2078-2.4304-1.3722-0.33199-2.1906 4e-3 -2.7041 1.1108-0.28041 0.6043-0.33407 0.90324-0.37196 2.0723-0.11147 3.44 0.9515 6.1444 3.2378 8.2365 0.85641 0.78367 2.895 1.9637 4.1184 2.384 0.47125 0.16193 0.89319 0.3424 0.93765 0.40113 0.1289 0.17029 0.11052 2.4198-0.0199 2.4485-0.0636 0.0141-0.58173-0.15877-1.1514-0.38393-1.4575-0.57603-3.6116-1.8527-4.7385-2.8083zm8.1869-6.4973-0.075-11.522 1.1788 0.68058 1.1788 0.68059 0.0237 3.5866c0.0149 2.2482 0.0629 3.6104 0.12867 3.6483 0.0577 0.0333 0.45782 0.11196 0.88909 0.17474 2.8046 0.40831 6.0585 2.5768 7.3524 4.8998 0.19858 0.35654 0.49159 1.033 0.65113 1.5032 0.26107 0.76947 0.29111 1 0.30029 2.3048 9e-3 1.3148-0.0178 1.5084-0.28991 2.0755-0.37318 0.77779-0.98766 1.074-2.2356 1.0775-0.50789 1e-3 -0.92311 0.0521-0.9227 0.11258 6.4e-4 0.093 0.96816 2.2901 3.6602 8.3118l0.47701 1.067-1.5468-0.89297-1.5468-0.89299-1.9296-4.3664c-1.061-2.401-1.9958-4.5723-2.0773-4.8256-0.0815-0.25322-0.1796-0.75427-0.21788-1.1134l-0.0696-0.65297 1.1938 0.38651c0.6566 0.21259 1.4261 0.36895 1.71 0.34746 0.96188-0.0728 1.4986-0.71718 1.4912-1.7901-0.0172-2.4904-3.1428-4.9309-6.2889-4.9104l-0.68601 4e-3 0.043 6.4988 0.043 6.5026-2.3601-1.3625z" fill="#626262"/></g></g><g transform="matrix(1.302 0 0 1.302 -105.86 -240.09)"><circle cx="123" cy="226" r="15" fill="#99cad7" fill-opacity=".66125" stroke="#def2fc" stroke-width="2.7" style="paint-order:normal"/><text transform="translate(0 -.52917)" x="410.40244" y="808.74219" display="none" fill="#000000" font-family="'JetBrains Mono'" font-size="2.1167px" font-weight="600" stroke-linecap="round" stroke-linejoin="round" style="inline-size:30.7073;paint-order:normal;shape-inside:url(#circle1);white-space:pre-wrap" xml:space="preserve"><tspan x="410.40244" y="214.24135">0101011000110</tspan><tspan x="410.40244" y="216.88719">01101101011010110</tspan><tspan x="410.40244" y="219.53304">10110011101100010011</tspan><tspan x="410.40244" y="222.17888">0110000011010001101101</tspan><tspan x="410.40244" y="224.82472">10110101101100101001011</tspan><tspan x="410.40244" y="227.47057">010010111101000101001001</tspan><tspan x="410.40244" y="230.11641">01001011001111011011010</tspan><tspan x="410.40244" y="232.76225">0101111110000011001100</tspan><tspan x="410.40244" y="235.4081">11010001010000110100</tspan><tspan x="410.40244" y="238.05394">0100101110101101</tspan><tspan x="410.40244" y="240.69978">011000110001</tspan><tspan x="410.40244" y="245.6541">1<tspan dx="1.2700027 1.2700027 1.2700025">101</tspan><tspan dx="1.2700027 1.2700028 1.2700024 1.2700019 1.2700028 1.2700033 1.2700028 1.2700028 1.2700019 1.2700019 1.2700038 1.2700028 1.2700028 1.2700028 1.2700047 1.2700028 1.2700028 1.2700028 1.2700028 1.2700047 1.2700028 1.2700028 1.2700009 1.2700028">010011011101000101011000</tspan><tspan dx="1.2700047 1.2700043 1.2700005 1.2700043 1.2700005 1.2700043 1.2700005 1.2700005 1.2700043 1.2700005 1.2700043 1.2700005 1.2700005 1.2700043 1.2700081 1.2700005 1.2700005 1.2700005 1.2700043 1.2700081 1.2700005 1.2700005 1.2700005 1.2700043">011101100101110100010100</tspan><tspan dx="1.2700005 1.2700043 1.2700043 1.2699966 1.2700043 1.2700043 1.2700043 1.2700043 1.2699966 1.2700043 1.2700043 1.2700043 1.2699966 1.2699966 1.2700043 1.2700043 1.2700043 1.2700043 1.2699966 1.2700043 1.2700043 1.2700043 1.2699966 1.2699966">110001101101011111011111</tspan><tspan dx="1.2700119 1.2700043 1.2700043 1.2699966 1.2700043 1.2700043 1.2700043 1.2700043 1.2699966 1.2700043 1.2700043 1.2700043 1.2699966 1.2699966 1.2700043 1.2700043 1.2700043 1.2700043 1.2699966 1.2700043 1.2700043 1.2700043 1.2699966 1.2699966">010010010011000011010011</tspan><tspan dx="1.2700043 1.2700043 1.2700043">101</tspan></tspan></text><g stroke="#0ea9d7"><circle cx="123" cy="226" r="15" fill="#99cad7" fill-opacity=".17724" stroke-width="2.7" style="paint-order:normal"/><ellipse cx="122.66" cy="226.73" rx="15.665" ry="17.029" display="none" fill="#99cad7" fill-opacity=".17724" stroke-width="3.0652" style="paint-order:normal"/><path d="m115.78 239.13-8.78 14.866" fill="#626262" stroke-width="3.2" style="paint-order:markers fill stroke"/><ellipse cx="122.66" cy="226.73" rx="15.665" ry="17.029" display="none" fill="#99cad7" fill-opacity=".17724" stroke-width="3.0652" style="paint-order:normal"/><ellipse cx="122.66" cy="226.73" rx="15.665" ry="17.029" display="none" fill="#99cad7" fill-opacity=".17724" stroke-width="3.0652" style="paint-order:normal"/></g></g><g transform="translate(-64.319 -159.54)"><path d="m97.929 280.88c-0.39932-0.0348-1.8025-0.30203-2.2405-0.42671-0.16694-0.0475-0.18896-0.21018-0.18896-1.3962 0-0.73833 0.03644-1.3418 0.08098-1.341s0.54258 0.0989 1.1067 0.21794c1.5476 0.32666 3.3051 0.39229 4.4275 0.16533 1.0586-0.21406 1.5304-0.46859 1.8886-1.0188 0.24936-0.38308 0.66197-1.4979 0.58116-1.5702-0.0224-0.0201-0.4781 0.0574-1.0126 0.17211-1.2594 0.27039-3.2838 0.29673-4.2782 0.0557-2.2643-0.54894-3.6112-1.9547-4.0381-4.2144-0.20198-1.0694-0.20285-3.0362-0.0017-3.9851 0.48192-2.2741 2.0327-3.8003 4.4308-4.3606 1.1718-0.27377 4.3639-0.27603 6.4245-5e-3 0.80171 0.10562 1.5348 0.21453 1.629 0.24202 0.1527 0.0445 0.17865 0.69285 0.2386 5.9599 0.0911 8.0058 0.0318 8.5475-1.066 9.7332-0.91925 0.99291-2.0711 1.5004-3.9301 1.7316-0.84886 0.10557-3.0492 0.12722-4.0519 0.0399zm4.8859-8.1361 0.78282-0.24545v-3.265c0-3.0077-0.0149-3.2711-0.18895-3.3431-0.10393-0.043-0.8935-0.10188-1.7546-0.13089-1.4319-0.0482-1.621-0.0321-2.2135 0.18926-0.82355 0.30762-1.4672 0.95052-1.7423 1.7403-0.15348 0.44062-0.20098 0.8855-0.20004 1.8735 0.0011 1.1196 0.03484 1.3691 0.24848 1.8356 0.30583 0.66782 0.80324 1.2034 1.3699 1.4752 0.60869 0.29191 2.5737 0.22312 3.6982-0.12947zm-44.513 3.4928c-0.57589-0.0747-2.1481-0.36626-2.5644-0.47552l-0.40491-0.10627v-1.4608c0-1.3711 0.01223-1.4569 0.19936-1.3975 2.2621 0.71797 4.883 0.9667 6.1406 0.58278 0.5137-0.15681 0.89433-0.66342 0.89433-1.1903 0-0.3466-0.06771-0.49754-0.33534-0.74755-0.29576-0.27627-0.42004-0.3149-1.0528-0.32719-0.39458-8e-3 -0.93606-4e-3 -1.2033 7e-3 -0.26724 0.0117-0.99607-0.0307-1.6196-0.0942-2.5269-0.25748-3.5788-1.3782-3.6044-3.8403-0.01532-1.4721 0.21688-2.1828 0.95413-2.9207 0.9789-0.97969 2.0584-1.3333 4.3412-1.422 1.7033-0.0662 3.0755 0.067 4.4788 0.4349l0.90271 0.23664 0.03046 1.3408c0.01675 0.73745-0.0088 1.3801-0.05681 1.4281-0.048 0.048-0.40183-9e-3 -0.78629-0.12607-1.9748-0.60272-4.7077-0.78826-5.7496-0.39035-0.85391 0.32611-1.1546 0.96434-0.78815 1.673 0.22857 0.44199 0.59714 0.55512 1.8218 0.55917 1.7035 6e-3 3.2022 0.17308 3.9062 0.43647 0.79837 0.29871 1.4785 0.9208 1.8632 1.7041 0.27843 0.56697 0.29914 0.70259 0.29914 1.9588 0 1.5798-0.15693 2.0522-0.94287 2.8381-0.97436 0.97436-2.4612 1.3838-4.9267 1.3567-0.81-9e-3 -1.6185-0.0351-1.7967-0.0582zm11.888-0.0852c-0.4691-0.082-1.1858-0.23059-1.5926-0.33029l-0.73972-0.18128v-1.374c0-0.75573 0.0263-1.4004 0.05845-1.4325 0.03215-0.0322 0.5614 0.0765 1.1761 0.24138 2.0952 0.5621 4.8858 0.62876 5.5544 0.13268 0.55036-0.40837 0.57437-1.3301 0.04738-1.8185-0.26494-0.24554-0.35751-0.26085-1.5883-0.26265-2.8223-4e-3 -4.019-0.27042-4.8213-1.0728-0.73322-0.73322-1.0022-1.4947-1.0125-2.8664-0.0044-0.59387 0.05331-1.2818 0.12835-1.5286 0.17748-0.58391 0.73441-1.3985 1.2229-1.7887 0.4493-0.35886 1.5512-0.75406 2.6425-0.9477 1.4808-0.26276 4.8462-4e-3 6.4448 0.49539 0.16775 0.0524 0.18896 0.22313 0.18896 1.521 0 1.348-0.01472 1.4563-0.18896 1.3892-0.10393-0.04-0.63402-0.18843-1.178-0.32987-2.444-0.63547-4.9661-0.57519-5.7843 0.13824-0.45336 0.39529-0.31508 1.4149 0.22905 1.689 0.18379 0.0926 0.95734 0.16488 2.2253 0.20798 2.0905 0.0711 2.877 0.21449 3.7342 0.68105 1.7677 0.96208 2.2137 4.0841 0.85203 5.9638-0.43642 0.60246-1.0318 0.97113-2.0808 1.2885-0.76994 0.23293-1.133 0.2723-2.7754 0.30101-1.2642 0.0221-2.1719-0.0163-2.7425-0.11598zm20.623 0.0479c-0.29133-0.0502-0.8363-0.24212-1.211-0.42661l-0.68135-0.33543-1.0564 0.33926c-0.87766 0.28184-1.2848 0.34837-2.4061 0.39314-2.0138 0.0804-3.4908-0.29946-4.4546-1.1457-1.0865-0.95398-1.4354-3.24-0.73588-4.8215 0.43024-0.97263 1.5869-1.7273 3.1453-2.0522 0.86131-0.17959 3.0623-0.22826 4.4485-0.0984l0.83591 0.0783-1.67e-4 -0.47158c-2.12e-4 -0.59512-0.279-1.1572-0.72002-1.4516-0.87743-0.58579-3.387-0.68716-5.6692-0.229l-1.2606 0.25307-0.07111-0.87171c-0.03911-0.47945-0.0549-1.0904-0.0351-1.3576l0.03602-0.48589 0.73447-0.18346c1.2245-0.30585 2.8235-0.44267 4.4446-0.3803 2.455 0.0944 4.1208 0.65497 5.0639 1.704 0.87956 0.97829 0.87845 0.96988 0.87845 6.634v4.9669l-0.37791 0.0168c-0.20785 9e-3 -0.61628-0.0243-0.90761-0.0744zm-4.0329-2.9046c0.4492-0.11488 1.0663-0.33533 1.3713-0.48988l0.55453-0.28101-0.0313-0.88679-0.0313-0.8868-1.1337-0.13634c-1.1725-0.14101-2.459-0.10579-3.1513 0.0863-0.47885 0.13282-0.91759 0.62212-1.0128 1.1295-0.1024 0.54585 0.28671 1.303 0.74253 1.4448 0.90937 0.28295 1.6435 0.28848 2.6921 0.0203zm-67.187-6.1077v-9.0159h3.6459l1.7897 4.0221c3.3004 7.4172 4.1478 9.2704 4.2419 9.2764 0.09378 6e-3 0.76169-1.4846 4.1085-9.1684l1.7989-4.13h3.4187v18.032h-3.1313l-0.0033-6.0736c-0.0019-3.4627-0.04335-6.004-0.0965-5.9116-0.05127 0.0891-1.1265 2.8222-2.3895 6.0736l-2.2963 5.9116h-2.994l-0.10821-0.29693c-0.05952-0.16331-1.1394-2.8956-2.3998-6.0717l-2.2916-5.7748-0.06681 2.4816c-0.03674 1.3649-0.07319 4.0972-0.08098 6.0717l-0.01418 3.5902h-3.1313zm26.591 8.8448c-2.617-0.43925-4.1697-1.8348-4.8554-4.3639-0.26311-0.97045-0.25991-3.5471 0.0056-4.5152 0.5821-2.1225 1.8395-3.3959 3.9211-3.9711 0.95214-0.2631 3.3622-0.32423 4.2801-0.10857 1.5686 0.36856 2.5873 1.1076 3.2001 2.3215 0.53659 1.063 0.67876 1.888 0.63454 3.682-0.02123 0.86111-0.07713 1.6264-0.12424 1.7006-0.06618 0.1043-1.0658 0.13497-4.3983 0.13497-4.8518 0-4.5161-0.0705-4.0496 0.85012 0.52461 1.0353 1.2463 1.4156 3.1177 1.6432 0.96752 0.11764 3.1434 8e-3 4.3604-0.21901 0.2835-0.053 0.55269-0.0733 0.59819-0.0452 0.04551 0.0281 0.08274 0.65136 0.08274 1.385v1.3338l-0.40491 0.0638c-1.9568 0.30829-4.8795 0.35787-6.3681 0.10803zm3.8577-7.9218c0-1.1879-0.69412-2.1509-1.7059-2.3667-1.2099-0.25806-2.2677-0.0554-2.9103 0.5576-0.31741 0.30279-0.66126 1.0129-0.84509 1.7454l-0.06885 0.27434h2.7651c2.6698 0 2.7651-7e-3 2.7651-0.21064zm64.287 7.9793c-0.953-0.12434-1.5086-0.28834-2.3634-0.69756-2.1697-1.0388-3.2133-3.2914-3.047-6.5768 0.10243-2.0234 0.65545-3.3821 1.7923-4.4036 1.0798-0.97023 2.3049-1.377 4.386-1.4564 2.1311-0.0813 3.4584 0.27408 4.4573 1.1933 0.63356 0.58303 0.93128 1.0672 1.2861 2.0918 0.27143 0.78365 0.29015 0.95685 0.28469 2.6337-3e-3 0.98718-0.0397 1.8496-0.0811 1.9166-0.0537 0.087-1.3007 0.12168-4.3698 0.12168-2.3621 0-4.3234 0.0288-4.3586 0.0639-0.12183 0.12184 0.36676 1.0718 0.75884 1.4754 0.50988 0.52488 1.2361 0.78886 2.6092 0.9485 1.0971 0.12755 2.6869 0.0496 4.3334-0.21255 0.32263-0.0514 0.62304-0.0713 0.66758-0.0442 0.0445 0.027 0.081 0.65365 0.081 1.3925 0 0.73882-0.0364 1.3443-0.081 1.3456-0.0445 1e-3 -0.66405 0.0726-1.3767 0.15859-1.3811 0.16663-3.8903 0.19162-4.979 0.0496zm3.463-8.2262c-0.10771-0.63756-0.34522-1.2758-0.56539-1.5192-0.56231-0.62181-1.9933-0.88755-3.0793-0.57184-0.95724 0.27828-1.3926 0.82051-1.8513 2.3056l-0.075 0.24295h5.6482zm5.889-0.68237v-9.022l4.8319 0.0374c4.7547 0.0368 4.8429 0.0415 5.5206 0.29063 0.91263 0.3355 1.7174 1.0026 2.0765 1.7212 0.41163 0.82381 0.59364 2.0235 0.45157 2.9765-0.39375 2.641-2.0021 4.0942-5.5697 5.0324-1.7243 0.45344-1.6226 0.48454-1.8675-0.57115-0.11364-0.48994-0.20662-0.9348-0.20662-0.98859 0-0.0538 0.51707-0.23264 1.149-0.39746 2.5342-0.66089 3.7663-1.7303 3.9384-3.4184 0.0853-0.8363-0.20371-1.6781-0.71859-2.0934-0.67576-0.54505-1.3715-0.64052-4.4328-0.60829l-2.7434 0.0289-0.0277 8.0172-0.0277 8.0172h-2.3741zm17.546 8.8615c-0.84537-0.18702-1.206-0.32969-1.71-0.67654-0.88316-0.60774-1.4753-1.932-1.4753-3.2994 0-3.0582 2.3185-4.4237 6.916-4.073 2.2063 0.1683 1.9798 0.25142 1.9078-0.69993-0.0857-1.1336-0.31333-1.548-1.0496-1.9111-1.189-0.58648-3.2786-0.62165-5.7011-0.0959-0.48641 0.10556-0.90891 0.1674-0.93888 0.13743-0.03-0.03-0.0545-0.47667-0.0545-0.99266v-0.93816l0.83681-0.17579c1.4903-0.31307 2.2166-0.39372 3.5362-0.39264 1.3748 1e-3 2.3921 0.16519 3.4552 0.55721 0.87384 0.32222 1.7562 1.1934 2.113 2.0863 0.25766 0.64476 0.25871 0.66479 0.2943 5.6409l0.0357 4.9938h-0.68674c-0.65692 0-0.70472-0.0184-1.1013-0.42452l-0.41454-0.42453-0.55216 0.21845c-1.4933 0.5908-3.9147 0.80116-5.411 0.4701zm4.1037-2.1145c0.41535-0.12801 0.93739-0.32543 1.1601-0.43872l0.40491-0.20598v-1.5668c0-1.3922-0.0211-1.575-0.18896-1.6403-0.3548-0.138-4.3697-0.0909-4.8573 0.057-0.90769 0.27531-1.5541 1.3322-1.3819 2.2594 0.17216 0.92671 0.78667 1.5664 1.6881 1.7573 0.72488 0.15349 2.3184 0.0421 3.175-0.22186zm11.499 2.0659c-2.3801-0.5028-3.9178-1.9027-4.5461-4.1387-0.20952-0.74563-0.25029-1.1502-0.25282-2.5086-4e-3 -1.8887 0.1875-2.7009 0.8898-3.7836 0.76265-1.1758 1.6368-1.7965 3.2073-2.2777 0.92082-0.2821 1.085-0.29785 3.1313-0.30035 1.9386-2e-3 3.2995 0.12332 3.4994 0.32319 0.10485 0.10485 0.14843 1.7865 0.0487 1.8792-0.0511 0.0475-0.48157 0.0161-0.95666-0.0696-1.2244-0.22095-3.3927-0.22137-4.2379-8.1e-4 -1.3848 0.36138-2.214 0.99629-2.7397 2.0978-0.28705 0.60147-0.3431 0.86045-0.38851 1.7953-0.13359 2.7501 0.92372 4.3904 3.2204 4.9961 0.86027 0.22689 2.9123 0.22935 4.1457 5e-3 0.47509-0.0864 0.90024-0.13592 0.94478-0.10998 0.12914 0.0752 0.096 1.848-0.036 1.9296-0.0643 0.0398-0.58667 0.13887-1.1607 0.22022-1.4687 0.20815-3.6366 0.18225-4.7689-0.057zm8.3141-8.8068v-9.0159h2.3755v2.8074c0 1.7593 0.0395 2.8074 0.1057 2.8074 0.0581 0 0.46215-0.11965 0.89781-0.2659 2.8333-0.9511 6.109-0.72345 7.4012 0.51438 0.19831 0.18996 0.48984 0.58833 0.64785 0.88527 0.25855 0.48587 0.28729 0.65328 0.28729 1.6736 0 1.028-0.0287 1.1922-0.30788 1.7607-0.38282 0.77962-1.0062 1.2905-2.2678 1.8587-0.51345 0.23124-0.93354 0.45912-0.93354 0.5064 0 0.0727 0.96269 1.3584 3.6412 4.8631l0.4745 0.62086h-3.1138l-1.9197-2.5511c-1.0558-1.4031-1.9858-2.6834-2.0665-2.8452s-0.1764-0.51055-0.21265-0.77507l-0.0659-0.48094 1.2042-0.23759c0.66229-0.13067 1.4391-0.35663 1.7262-0.50214 0.97296-0.49303 1.5202-1.2421 1.5202-2.081 0-1.9477-3.1437-2.447-6.3248-1.0047l-0.69359 0.31449v10.163h-2.3755z" display="none"/></g></svg>
